<ttFont>
          <CharString index="0">
            -2 -21 -6 -22 -9 -35 callsubr
            -88 -287 -26 -84 -52 -78 callsubr
            14 60 12 52 rrcurveto
            1 37 35 0 36 hhcurveto
            37 33 0 -1 38 -34 callgsubr
            -125 424 rmoveto
            25 -86 38 -140 30 -99 rrcurveto
            -184 hlineto
            10 36 64 245 17 44 rrcurveto
            return
          </CharString>
          <CharString index="1">
            27 callgsubr
            -193 118 -158 195 196 146 160 220 184 -103 162 -205 -206 -141 -164 -211 vhcurveto
            542 2 rmoveto
            -93 -18 -101 -49 -55 vhcurveto
            -23 -36 -46 -10 -45 hhcurveto
            -176 -59 149 156 108 28 92 37 46 hvcurveto
            18 29 56 13 53 hhcurveto
            173 53 -140 -160 hvcurveto
            return
          </CharString>
          <CharString index="2">
            -97 callgsubr
            hintmask 10111000
            -89 callgsubr
            -67 -62 vvcurveto
            -143 vlineto
            -116 35 -62 116 62 55 41 46 54 vhcurveto
            endchar
          </CharString>
          <CharString index="3">
            rmoveto
            -60 callgsubr
            144 -75 98 -154 -31 callgsubr
            vhcurveto
            368 -2 -99 callgsubr
          </CharString>
          <CharString index="4">
            25 75 -404 -3 rlineto
            -35 callgsubr
            -280 vlineto
            -88 callgsubr
            -5 38 1 205 30 vvcurveto
            1 18 24 2 45 hhcurveto
            50 31 -57 callsubr
            178 28 callgsubr
            return
          </CharString>
          <CharString index="5">
            300 -50 callsubr
            -103 callsubr
            -8 callgsubr
            return
          </CharString>
          <CharString index="6">
            -84 callgsubr
            -135 -95 -132 -130 -147 81 -94 142 63 109 74 15 15 vhcurveto
            -304 209 -70 callsubr
          </CharString>
          <CharString index="7">
            rmoveto
            -30 -56 -42 -40 -48 -42 29 -30 rcurveline
            45 32 48 43 35 35 40 -43 55 -46 45 -26 28 31 rcurveline
            -52 44 -43 37 -30 61 rrcurveto
            return
          </CharString>
          <CharString index="8">
            -57 callgsubr
            -50 -134 vvcurveto
            -193 -3 -96 -37 -60 vhcurveto
            -18 -27 -45 -12 -63 hhcurveto
            -168 -2 87 228 162 1 86 12 78 hvcurveto
            -49 callsubr
            -196 61 -91 195 187 78 68 255 vhcurveto
            return
          </CharString>
          <CharString index="9">
            rmoveto
            34 19 37 25 34 27 31 25 29 26 22 22 -17 28 -18 17 -33 13 -34 -61 -56 -68 -52 -47 rrcurveto
            return
          </CharString>
          <CharString index="10">
            -16 -22 -33 -5 -20 hhcurveto
            -115 -33 94 115 53 15 75 26 32 hvcurveto
            16 21 31 6 28 hhcurveto
            112 29 -88 -119 hvcurveto
            return
          </CharString>
          <CharString index="11">
            rmoveto
            -25 -20 -52 -27 -38 hhcurveto
            -45 -32 30 54 17 4 26 11 17 hvcurveto
            12 17 40 5 28 hhcurveto
            25 40 -7 -8 22 hvcurveto
            16 -144 rmoveto
            return
          </CharString>
          <CharString index="12">
            31 -19 27 -63 -58 vvcurveto
            -170 -92 callsubr
            return
          </CharString>
          <CharString index="13">
            -106 callgsubr
            -206 -5 -96 callgsubr
          </CharString>
          <CharString index="14">
            -83 rmoveto
            14 -5 26 -5 13 vhcurveto
            -7 7 -6 1 -13 -1 -13 -2 rlinecurve
            -14 -2 -15 -4 -6 -3 -2 -2 -2 -4 -1 -3 rrcurveto
            9 -16 8 -21 -21 vvcurveto
            -45 -8 -28 -30 -47 vhcurveto
            37 -15 rlineto
            40 45 33 46 62 vvcurveto
            return
          </CharString>
          <CharString index="15">
            vlineto
            -37 -5 -61 -12 -48 callgsubr
            140 -44 callsubr
            -14 67 62 vvcurveto
            return
          </CharString>
          <CharString index="16">
            103 vstem
            -95 callgsubr
            return
          </CharString>
          <CharString index="17">
            530 -98 callsubr
            return
          </CharString>
          <CharString index="18">
            rmoveto
            29 -56 callgsubr
            -20 35 -50 134 rrcurveto
            -32 85 -131 367 53 vvcurveto
            return
          </CharString>
          <CharString index="19">
            94 10 rlineto
            -4 15 -9 108 87 vvcurveto
            251 vlineto
            77 7 120 8 -2 callgsubr
            -105 -7 vlineto
            12 -35 9 -101 -67 vvcurveto
            -325 vlineto
            -350 544 -121 -9 rlineto
            -7 vlineto
            6 -35 7 -118 -77 vvcurveto
            -224 vlineto
            -87 -7 -110 -8 -48 callgsubr
            vlineto
            return
          </CharString>
          <CharString index="20">
            rmoveto
            -22 -60 -42 -45 -43 -48 30 -27 rcurveline
            30 31 45 52 29 40 22 -36 64 -69 32 -26 34 34 rcurveline
            -45 51 -41 46 -23 68 rrcurveto
            return
          </CharString>
          <CharString index="21">
            2 15 3 30 -85 callgsubr
            return
          </CharString>
          <CharString index="22">
            -27 callsubr
            0 50 136 -20 hstemhm
            124 105 hintmask 11101100
            -102 callsubr
            return
          </CharString>
          <CharString index="23">
            rmoveto
            75 6 94 25 60 24 -4 31 -9 23 -24 27 -57 -43 -80 -39 -65 -21 rrcurveto
            endchar
          </CharString>
          <CharString index="24">
            rmoveto
            -17 -4 callgsubr
            -23 -4 -27 -28 callsubr
            -22 6 -40 -74 callsubr
            29 -86 callsubr
            return
          </CharString>
          <CharString index="25">
            -42 -54 43 -44 hhcurveto
            -35 -64 -69 -26 -21 hvcurveto
            20 -18 rlineto
            return
          </CharString>
          <CharString index="26">
            -22 callgsubr
            0 37 136 18 callgsubr
            hintmask 11011100
            -106 callsubr
            return
          </CharString>
          <CharString index="27">
            -87 callgsubr
            189 vlineto
            return
          </CharString>
          <CharString index="28">
            12 vlineto
            -12 35 -4 86 37 vvcurveto
            82 vlineto
            116 -138 -69 callsubr
            -170 -142 rlineto
            352 vlineto
            33 0 21 -82 callgsubr
          </CharString>
          <CharString index="29">
            -171 -44 -34 rrcurveto
            -10 136 17 vlineto
            41 2 12 7 40 vhcurveto
            4 22 return
          </CharString>
          <CharString index="30">
            -20 hstemhm
            87 68 390 69 hintmask 01111000
            173 -14 callgsubr
            hintmask 10111000
            378 -585 rlineto
            hintmask 01111000
            -88 callsubr
            return
          </CharString>
          <CharString index="31">
            -68 callgsubr
            131 37 vvcurveto
            return
          </CharString>
          <CharString index="32">
            -47 callsubr
            -137 -58 callgsubr
            return
          </CharString>
          <CharString index="33">
            -56 callsubr
            12 hlineto
            return
          </CharString>
          <CharString index="34">
            hstemhm
            -32 callsubr
            hintmask 11101100
            -106 callsubr
            return
          </CharString>
          <CharString index="35">
            rmoveto
            -31 1 -34 -70 callgsubr
            10 -309 -92 callgsubr
            endchar
          </CharString>
          <CharString index="36">
            12 vlineto
            -12 35 -5 86 37 vvcurveto
            -1 375 rlineto
            33 0 130 -82 callgsubr
          </CharString>
          <CharString index="37">
            -40 callgsubr
            35 5 13 hhcurveto
            80 19 -67 -80 hvcurveto
            endchar
          </CharString>
          <CharString index="38">
            rlineto
            57 -68 37 -42 -4 vvcurveto
            149 12 hlineto
            -36 13 -26 21 -95 104 -125 134 rcurveline
            142 122 44 35 31 25 19 2 rlinecurve
            12 -115 vlineto
            -7 -10 -14 -18 -15 vhcurveto
            return
          </CharString>
          <CharString index="39">
            vhcurveto
            7 -133 1 callsubr
            return
          </CharString>
          <CharString index="40">
            -47 callgsubr
            -55 callgsubr
            return
          </CharString>
          <CharString index="41">
            -98 callsubr
            endchar
          </CharString>
          <CharString index="42">
            60 vstem
            727 359 rmoveto
            193 -155 159 -192 -192 -157 -160 -196 -196 157 -160 192 195 152 159 201 vhcurveto
            -60 -8 rmoveto
            -161 -131 -134 -156 -157 -129 134 165 164 129 135 157 160 127 -134 -169 vhcurveto
            return
          </CharString>
          <CharString index="43">
            rmoveto
            35 -30 125 -112 13 -12 15 -16 13 -13 rlinecurve
            38 37 -137 150 117 126 20 23 -37 35 -149 -135 -17 -15 -21 -11 -19 -12 rlinecurve
            return
          </CharString>
          <CharString index="44">
            7 20 19 4 23 hhcurveto
            44 33 -13 -16 25 hvcurveto
            13 35 6 41 -1 43 rrcurveto
            5 -11 -20 2 -15 hhcurveto
            -53 -54 -23 -39 -38 hvcurveto
            -5 18 -8 21 -7 14 rrcurveto
            return
          </CharString>
          <CharString index="45">
            -62 callgsubr
            -16 -27 -31 -21 -34 hhcurveto
            return
          </CharString>
          <CharString index="46">
            rmoveto
            -33 1 -37 -7 -34 -11 -9 -9 rcurveline
            -1 -24 6 -41 10 -19 11 -5 rcurveline
            38 3 29 5 35 9 9 9 rcurveline
            4 27 -6 45 -12 11 rrcurveto
            return
          </CharString>
          <CharString index="47">
            vlineto
            -38 callsubr
            -43 -87 -13 -99 hhcurveto
            -35 return
          </CharString>
          <CharString index="48">
            -95 callsubr
            214 vlineto
            -63 callsubr
            return
          </CharString>
          <CharString index="49">
            rmoveto
            24 54 33 48 48 42 -32 28 rcurveline
            -49 -35 -47 -42 -32 -49 -28 40 -54 53 -43 33 -31 -31 rcurveline
            46 -44 36 -48 29 -59 rrcurveto
            endchar
          </CharString>
          <CharString index="50">
            -4 -4 34 -11 callsubr
            29 69 -238 -5 rlineto
            30 0 return
          </CharString>
          <CharString index="51">
            -21 callgsubr
            -22 callsubr
            return
          </CharString>
          <CharString index="52">
            100 vstem
            227 29 rmoveto
            -80 callgsubr
            return
          </CharString>
          <CharString index="53">
            rmoveto
            -15 3 -13 2 -14 0 -19 -5 rlinecurve
            -9 -6 -23 -16 37 -228 10 -22 rlinecurve
            28 hlineto
            10 22 38 229 -23 16 rrcurveto
            return
          </CharString>
          <CharString index="54">
            rmoveto
            -65 21 -80 39 -57 43 -24 -27 -9 -23 -4 -31 return
          </CharString>
          <CharString index="55">
            3 29 -65 callgsubr
            return
          </CharString>
          <CharString index="56">
            -82 callsubr
            25 32 20 13 35 hhcurveto
            return
          </CharString>
          <CharString index="57">
            643 rmoveto
            70 63 -3 -12 47 -11 callsubr
            return
          </CharString>
          <CharString index="58">
            7 -130 1 callsubr
            -117 -55 vvcurveto
            -211 vlineto
            return
          </CharString>
          <CharString index="59">
            -64 callgsubr
            hintmask 01111000
            -15 callsubr
            return
          </CharString>
          <CharString index="60">
            3 29 vhcurveto
            -6 10 return
          </CharString>
          <CharString index="61">
            29 7 46 37 59 vvcurveto
            68 -70 20 -57 -34 -54 -10 -14 -41 vhcurveto
            2 -29 6 -23 15 -24 rrcurveto
            32 28 39 26 33 hhcurveto
            37 16 -27 -33 -47 -31 -35 -43 hvcurveto
            -52 hlineto
            10 -42 rlineto
            3 hlineto
            2 12 29 1 15 hhcurveto
            return
          </CharString>
          <CharString index="62">
            -24 callsubr
            -18 -19 callsubr
            28 -24 9 -24 18 -81 -41 -77 -6 -19 36 -8 rcurveline
            44 69 54 95 -30 80 rrcurveto
            return
          </CharString>
          <CharString index="63">
            7 vlineto
            -15 34 return
          </CharString>
          <CharString index="64">
            -62 callsubr
            hintmask 10110000
            -75 callgsubr
            hintmask 11010000
            -25 callgsubr
            endchar
          </CharString>
          <CharString index="65">
            150 246 rmoveto
            76 26 75 45 27 vhcurveto
            3 22 11 0 12 hhcurveto
            35 44 -13 -39 51 hvcurveto
            21 23 13 25 17 27 rrcurveto
            32 -47 -67 11 -39 hhcurveto
            -131 -119 -108 -149 return
          </CharString>
          <CharString index="66">
            hvcurveto
            266 hlineto
            37 36 rlineto
            130 return
          </CharString>
          <CharString index="67">
            -4 callgsubr
            -22 -4 return
          </CharString>
          <CharString index="68">
            hmoveto
            96 69 20 38 53 hvcurveto
            87 63 43 115 137 vvcurveto
            223 -115 106 -240 -1 vhcurveto
            -38 -110 -3 -36 -30 -25 2 -3 hhcurveto
            -35 callgsubr
            return
          </CharString>
          <CharString index="69">
            18 92 rlineto
            -7 hlineto
            -19 return
          </CharString>
          <CharString index="70">
            42 85 22 30 15 11 rrcurveto
            10 -116 -17 vlineto
            -16 -10 -39 -14 -39 vhcurveto
            -9 -26 -24 return
          </CharString>
          <CharString index="71">
            -9 -8 rcurveline
            -1 -23 6 -40 10 -18 10 -4 rcurveline
            36 3 return
          </CharString>
          <CharString index="72">
            -31 rlinecurve
            -62 -212 51 171 return
          </CharString>
          <CharString index="73">
            33 0 21 -47 callsubr
            return
          </CharString>
          <CharString index="74">
            rmoveto
            -32 1 -35 -6 -32 -11 -36 callsubr
            28 4 33 9 9 8 rcurveline
            4 26 -6 44 -11 10 rrcurveto
            endchar
          </CharString>
          <CharString index="75">
            49 113 429 113 return
          </CharString>
          <CharString index="76">
            rmoveto
            -32 1 -35 -6 -33 -12 -36 callsubr
            29 4 33 10 9 7 rcurveline
            4 27 -6 43 -11 11 rrcurveto
            return
          </CharString>
          <CharString index="77">
            rmoveto
            -34 -25 20 41 10 5 19 8 8 hvcurveto
            6 9 15 5 12 hhcurveto
            41 20 -24 -35 -12 -5 -21 -8 -8 hvcurveto
            -6 -9 -17 -3 -12 hhcurveto
            endchar
          </CharString>
          <CharString index="78">
            -60 -6 -81 -8 -48 callgsubr
            128 7 vlineto
            -8 16 callgsubr
            return
          </CharString>
          <CharString index="79">
            -10 -10 -8 rcurveline
            return
          </CharString>
          <CharString index="80">
            36 0 60 279 58 246 58 return
          </CharString>
          <CharString index="81">
            7 vlineto
            -9 35 return
          </CharString>
          <CharString index="82">
            rmoveto
            -24 -40 -68 -107 -18 -29 -46 -72 -261 -404 -79 -80 return
          </CharString>
          <CharString index="83">
            rmoveto
            -8 18 -20 29 -11 12 -3 3 -5 2 -5 3 -9 -3 return
          </CharString>
          <CharString index="84">
            hstem
            44 106 262 106 vstem
            return
          </CharString>
          <CharString index="85">
            10 -3 rlineto
            return
          </CharString>
          <CharString index="86">
            hlineto
            11 65 8 45 5 24 7 36 7 28 5 20 -1 6 rcurveline
            -75 -18 rlineto
            0 -20 -167 -6 -39 vhcurveto
            return
          </CharString>
          <CharString index="87">
            159 119 -72 104 -119 -67 -50 -34 -40 -45 hvcurveto
            return
          </CharString>
          <CharString index="88">
            -8 -14 -9 -17 -11 -12 -11 -8 -7 -1 -12 rcurveline
            19 -17 return
          </CharString>
          <CharString index="89">
            25 -12 56 391 57 return
          </CharString>
          <CharString index="90">
            hlineto
            -16 -90 -17 -85 -12 -41 1 -6 rcurveline
            77 6 6 51 4 43 10 68 rlinecurve
            5 2 18 4 31 vhcurveto
            return
          </CharString>
          <CharString index="91">
            -50 callgsubr
            240 -20 -14 callsubr
            hintmask 10111110
            return
          </CharString>
          <CharString index="92">
            49 -40 22 -41 1 vhcurveto
            -5 -15 0 -3 -10 hvcurveto
            return
          </CharString>
          <CharString index="93">
            hstemhm
            45 98 187 94 return
          </CharString>
          <CharString index="94">
            vlineto
            33 0 21 -75 callsubr
            return
          </CharString>
          <CharString index="95">
            hhcurveto
            127 112 120 -20 callsubr
            return
          </CharString>
          <CharString index="96">
            hvcurveto
            7 hlineto
            return
          </CharString>
          <CharString index="97">
            -26 callgsubr
            240 -20 hstem
            44 106 205 98 vstem
            return
          </CharString>
          <CharString index="98">
            80 -32 32 22 callgsubr
            return
          </CharString>
          <CharString index="99">
            38 10 50 12 20 hvcurveto
            8 7 17 7 18 hhcurveto
            60 15 -68 -83 hvcurveto
            return
          </CharString>
          <CharString index="100">
            -39 -4 -60 -7 -49 vhcurveto
            4 -7 84 16 rlineto
            -4 42 0 54 39 vvcurveto
            return
          </CharString>
          <CharString index="101">
            -22 callsubr
            13 hlineto
            28 2 return
          </CharString>
          <CharString index="102">
            21 -21 410 82 return
          </CharString>
          <CharString index="103">
            0 callsubr
            744 -20 -18 callgsubr
            return
          </CharString>
          <CharString index="104">
            -81 9 callgsubr
            return
          </CharString>
          <CharString index="105">
            114 -43 84 -97 -90 -65 -77 -116 vhcurveto
            217 -16 rmoveto
            return
          </CharString>
          <CharString index="106">
            -1 -22 -4 -28 -10 -10 return
          </CharString>
          <CharString index="107">
            65 -11 82 -62 -21 return
          </CharString>
          <CharString index="108">
            -17 callgsubr
            6 return
          </CharString>
          <CharString index="109">
            hstem
            127 103 return
          </CharString>
          <CharString index="110">
            rmoveto
            -84 -20 -106 -47 -51 vhcurveto
            -22 -33 -53 -11 -33 hhcurveto
            return
          </CharString>
          <CharString index="111">
            rmoveto
            -1 -220 -219 1 -1 -67 rlineto
            220 return
          </CharString>
          <CharString index="112">
            vlineto
            -18 -18 2 1 -21 hvcurveto
            -23 -61 80 3 rlineto
            return
          </CharString>
          <CharString index="113">
            rmoveto
            -125 53 -82 100 85 57 92 110 vhcurveto
            return
          </CharString>
          <CharString index="114">
            hlineto
            -38 callsubr
            return
          </CharString>
          <CharString index="115">
            21 -21 700 return
          </CharString>
          <CharString index="116">
            66 220 -20 hstem
            262 68 vstem
            263 return
          </CharString>
          <CharString index="117">
            227 hlineto
            1 66 rlineto
            -228 219 hlineto
            return
          </CharString>
          <CharString index="118">
            15 rlineto
            5 vlineto
            -33 40 -7 60 -1 68 rrcurveto
            return
          </CharString>
          <CharString index="119">
            -15 -19 vhcurveto
            -11 -7 -19 -6 -9 hhcurveto
            -65 -17 return
          </CharString>
          <CharString index="120">
            6 -40 -21 callgsubr
            return
          </CharString>
          <CharString index="121">
            -20 hstem
            108 94 return
          </CharString>
          <CharString index="122">
            hstem
            -32 callsubr
            vstem
            49 return
          </CharString>
          <CharString index="123">
            104 21 -21 649 51 return
          </CharString>
          <CharString index="124">
            -22 -26 hvcurveto
            -9 -16 -29 -3 -21 hhcurveto
            return
          </CharString>
          <CharString index="125">
            33 0 130 -47 callsubr
            return
          </CharString>
          <CharString index="126">
            0 159 -158 -21 121 58 return
          </CharString>
          <CharString index="127">
            -259 449 -21 297 -20 hstem
            return
          </CharString>
          <CharString index="128">
            -23 callgsubr
            endchar
          </CharString>
          <CharString index="129">
            50 hhcurveto
            90 11 -104 -63 -70 -20 return
          </CharString>
          <CharString index="130">
            hvcurveto
            23 33 10 26 9 47 rrcurveto
            return
          </CharString>
          <CharString index="131">
            hstemhm
            203 80 -53 53 -53 82 return
          </CharString>
          <CharString index="132">
            -20 hstem
            96 94 230 94 vstem
            return
          </CharString>
          <CharString index="133">
            -21 173 -20 hstem
            return
          </CharString>
          <CharString index="134">
            -5 rmoveto
            -16 hlineto
            return
          </CharString>
          <CharString index="135">
            0 23 hhcurveto
            return
          </CharString>
        <CharString name=".notdef">
          -312 endchar
        </CharString>
        <CharString name=".null">
          -537 endchar
        </CharString>
        <CharString name="A">
          36 1 callgsubr
          412 -20 hstem
          388 202 rmoveto
          30 -56 callgsubr
          -21 35 -51 134 rrcurveto
          -33 85 -133 367 53 vvcurveto
          -117 -12 -2 -21 -7 -22 -10 -35 callsubr
          -89 -287 -26 -84 -54 -78 callsubr
          15 60 13 52 rrcurveto
          1 38 36 0 37 hhcurveto
          39 34 0 -1 40 -34 callgsubr
          -130 424 rmoveto
          27 -86 40 -140 32 -99 rrcurveto
          -195 hlineto
          10 36 69 245 17 44 rrcurveto
          endchar
        </CharString>
        <CharString name="AE">
          328 0 60 211 59 -11 58 266 58 2 -20 hstemhm
          416 105 hintmask 11010100
          592 -50 callsubr
          hintmask 11001100
          25 75 -404 -3 rlineto
          -25 hlineto
          -3 -21 -10 -21 -15 -31 -43 -90 -21 -40 -81 -150 -47 -87 -112 -215 -53 -35 rrcurveto
          -10 129 vlineto
          20 16 42 24 50 vhcurveto
          37 77 21 43 23 39 rrcurveto
          1 42 16 0 40 hhcurveto
          78 -62 hlineto
          -88 callgsubr
          -4 30 0 90 133 vvcurveto
          hintmask 10110100
          1 18 25 2 39 hhcurveto
          56 30 -57 callsubr
          198 28 callgsubr
          -8 callgsubr
          -176 -153 rmoveto
          hintmask 11010100
          -160 -148 vlineto
          138 270 rlineto
          6 hlineto
          2 -35 2 -39 -36 vvcurveto
          endchar
        </CharString>
        <CharString name="Aacute">
          25 21 -21 887 -20 hstem
          378 202 -107 callgsubr
          -39 125 -84 callsubr
        </CharString>
        <CharString name="Acircumflex">
          25 1 callgsubr
          602 -20 hstem
          225 903 -100 callsubr
          73 -701 -107 callgsubr
          endchar
        </CharString>
        <CharString name="Adieresis">
          58 1 callgsubr
          445 104 9 -20 hstemhm
          hintmask 11100000
          387 202 -107 callgsubr
          -40 224 -106 callgsubr
          hintmask 11010000
          190 13 -96 callgsubr
        </CharString>
        <CharString name="Agrave">
          25 21 -21 887 -20 hstem
          361 784 -51 callgsubr
          27 -549 -107 callgsubr
          endchar
        </CharString>
        <CharString name="Aring">
          58 1 callgsubr
          551 43 hstem
          215 110 vstem
          387 202 -89 callsubr
          -16 -2 rlineto
          30 18 20 32 40 vvcurveto
          5 callgsubr
          -38 29 -36 34 -14 vhcurveto
          -14 -1 -107 callsubr
          12 117 -30 callsubr
        </CharString>
        <CharString name="Atilde">
          25 1 callgsubr
          480 -9 callsubr
          hintmask 11010000
          353 781 -41 callgsubr
          hintmask 11001000
          -51 callsubr
          hintmask 11100000
          -25 callgsubr
          25 -579 -107 callgsubr
          endchar
        </CharString>
        <CharString name="B">
          123 -2 54 307 52 241 48 hstemhm
          127 103 215 101 -66 113 hintmask 11110100
          279 359 rmoveto
          150 -3 51 -54 -90 vvcurveto
          -99 -71 -61 -103 -19 -30 2 7 -23 vhcurveto
          -4 49 0 58 192 vvcurveto
          2 289 rmoveto
          3 31 22 0 24 hhcurveto
          hintmask 11111000
          90 46 -35 -85 -67 -29 -54 -107 hvcurveto
          -79 hlineto
          209 0 14 2 15 vhcurveto
          100 51 rmoveto
          -30 -99 -2 -33 -33 -22 2 -4 hhcurveto
          -7 vlineto
          12 -40 4 -76 -37 vvcurveto
          -390 vlineto
          -37 -6 -71 -13 -48 callgsubr
          vlineto
          33 1 21 3 39 -1 rrcurveto
          1 15 53 -6 51 hhcurveto
          46 53 5 17 43 hvcurveto
          hintmask 11110100
          73 28 58 64 106 vvcurveto
          140 -101 36 -43 9 vhcurveto
          hintmask 11111000
          47 25 50 51 81 vvcurveto
          104 -84 36 -130 vhcurveto
          endchar
        </CharString>
        <CharString name="C">
          121 -13 84 570 71 hstem
          49 113 vstem
          162 375 rmoveto
          130 57 84 61 45 vhcurveto
          6 29 23 1 18 hhcurveto
          76 66 -18 -65 81 23 callsubr
          35 -67 -69 13 -61 hhcurveto
          -204 -165 -143 -230 -217 146 -135 167 130 92 81 30 46 hvcurveto
          -27 41 rlineto
          -28 -51 -76 -40 -72 hhcurveto
          -130 -112 103 201 hvcurveto
          endchar
        </CharString>
        <CharString name="CR">
          -312 endchar
        </CharString>
        <CharString name="Ccedilla">
          121 -221 44 -44 159 703 71 hstemhm
          49 113 232 76 hintmask 10111000
          299 -87 rmoveto
          -48 callsubr
          32 53 111 9 105 86 23 15 rlinecurve
          -27 41 rlineto
          -13 -23 -102 -55 -63 hhcurveto
          -157 -96 141 155 142 55 77 63 48 hvcurveto
          6 29 21 1 26 hhcurveto
          68 70 -19 -64 79 23 callsubr
          36 -67 -81 12 -35 hhcurveto
          -227 -156 -143 -233 -200 123 -130 163 -17 hvcurveto
          endchar
        </CharString>
        <CharString name="D">
          217 0 68 -46 -21 640 60 hstemhm
          124 103 365 113 hintmask 10111000
          357 -39 callsubr
          -279 vlineto
          -87 -7 -3 callsubr
          hintmask 01111000
          -7 59 vlineto
          hintmask 10111000
          -7 callgsubr
          60 vlineto
          30 0 178 2 38 -28 callgsubr
        </CharString>
        <CharString name="E">
          -27 callsubr
          2 -20 hstemhm
          124 105 hintmask 11101000
          300 -50 callsubr
          hintmask 11011000
          -103 callsubr
          hintmask 11101000
          -8 callgsubr
          endchar
        </CharString>
        <CharString name="Eacute">
          -85 callsubr
          hintmask 11011100
          -52 108 -84 callsubr
        </CharString>
        <CharString name="Ecircumflex">
          -27 callsubr
          202 -20 hstem
          124 105 vstem
          -102 callsubr
          -8 260 -98 callgsubr
        </CharString>
        <CharString name="Edieresis">
          -27 callsubr
          53 104 hstem
          124 105 vstem
          -102 callsubr
          166 215 -94 callsubr
        </CharString>
        <CharString name="Egrave">
          -85 callsubr
          107 141 -53 callsubr
          rrcurveto
          hintmask 11011100
          21 callsubr
        </CharString>
        <CharString name="Eth">
          205 0 68 -46 -21 350 53 237 60 hstemhm
          112 103 365 113 hintmask 10111100
          345 -39 callsubr
          -91 vlineto
          -28 -28 1 2 -24 hvcurveto
          -7 hlineto
          -23 -56 rlineto
          0 62 3 48 2 vhcurveto
          -140 vlineto
          -87 -7 -3 callsubr
          hintmask 01111100
          -7 59 vlineto
          hintmask 10111100
          -7 callgsubr
          18 vlineto
          38 -1 42 -2 48 -3 rrcurveto
          7 hlineto
          25 58 rlineto
          -1 -56 -72 -3 -21 hhcurveto
          -11 hlineto
          36 0 167 2 37 -28 callgsubr
        </CharString>
        <CharString name="Euro">
          111 -12 75 205 54 75 54 190 71 hstem
          15 398 rmoveto
          68 hlineto
          -1 -14 -1 -14 -15 vvcurveto
          -12 0 -11 1 -10 vhcurveto
          -54 hlineto
          -23 -53 rlineto
          82 hlineto
          -196 29 133 -85 145 hhcurveto
          87 91 55 34 48 hvcurveto
          -25 39 rlineto
          -20 -34 -62 -33 -77 hhcurveto
          -114 -72 93 112 -29 hvcurveto
          293 hlineto
          11 callgsubr
          -194 hlineto
          -2 18 -1 19 19 vvcurveto
          19 310 vlineto
          11 callgsubr
          -195 hlineto
          16 84 43 61 40 37 rrcurveto
          5 15 31 3 30 hhcurveto
          94 53 -33 -28 40 hvcurveto
          12 18 29 54 1 28 rrcurveto
          15 -29 -57 17 -92 hhcurveto
          -143 -147 -99 -162 -43 hvcurveto
          -55 hlineto
          endchar
        </CharString>
        <CharString name="F">
          -7 21 -21 328 61 253 58 2 -20 hstemhm
          124 103 hintmask 11101000
          231 640 rmoveto
          2 23 24 28 callsubr
          70 63 -4 -12 47 -11 callsubr
          hintmask 11011000
          25 76 -405 -3 rlineto
          -17 callgsubr
          7 -81 -87 vvcurveto
          -279 vlineto
          -77 -7 -91 -16 callgsubr
          135 -26 callsubr
          -7 82 87 vvcurveto
          115 vlineto
          1 18 29 1 24 hhcurveto
          72 18 -3 -5 34 -11 callsubr
          32 72 -234 -5 rlineto
          30 -1 185 5 38 vhcurveto
          endchar
        </CharString>
        <CharString name="G">
          170 -12 74 204 62 313 71 hstem
          49 113 375 89 vstem
          656 273 rmoveto
          28 55 -79 -4 -78 2 -79 6 rlinecurve
          -42 -66 rlineto
          131 hlineto
          -60 -1 -61 -11 -57 vhcurveto
          -16 -25 -57 -10 -44 hhcurveto
          -167 -70 118 187 113 33 97 64 54 hvcurveto
          6 19 37 4 31 hhcurveto
          102 60 -41 -49 37 hvcurveto
          40 25 31 25 24 25 rrcurveto
          41 -55 -76 45 -111 hhcurveto
          -216 -133 -170 -210 -202 124 -142 191 114 93 51 39 62 hvcurveto
          -7 57 0 6 132 vvcurveto
          endchar
        </CharString>
        <CharString name="H">
          230 21 -21 336 63 301 -20 hstem
          123 103 315 103 vstem
          644 490 rmoveto
          77 6 91 10 callgsubr
          -131 -37 vvcurveto
          -91 -315 91 vlineto
          37 6 131 9 35 -74 callgsubr
          -280 vlineto
          -87 -6 -81 -68 callgsubr
          130 37 vvcurveto
          127 vlineto
          1 58 43 0 56 52 56 -1 50 hhcurveto
          -127 vlineto
          -37 -6 -130 -68 callgsubr
          91 77 vvcurveto
          endchar
        </CharString>
        <CharString name="I">
          -188 8 callsubr
          -20 hstem
          123 -91 callsubr
          endchar
        </CharString>
        <CharString name="IJ">
          168 -226 -21 268 -21 700 -20 hstem
          123 103 253 -91 callsubr
          146 -457 -77 callgsubr
          endchar
        </CharString>
        <CharString name="Iacute">
          -184 8 callsubr
          51 136 -20 hstem
          129 103 vstem
          232 -100 callgsubr
          -121 541 -84 callsubr
        </CharString>
        <CharString name="Icircumflex">
          -189 21 -21 903 -20 hstem
          123 -91 callsubr
          -93 693 -98 callgsubr
        </CharString>
        <CharString name="Idieresis">
          -189 21 -21 756 104 2 callsubr
          vstem
          230 -100 callgsubr
          82 650 -94 callsubr
        </CharString>
        <CharString name="Igrave">
          -184 8 callsubr
          51 136 -20 hstem
          123 -91 callsubr
          27 574 -51 callgsubr
          endchar
        </CharString>
        <CharString name="Itilde">
          -188 21 -21 786 80 22 callgsubr
          123 103 hintmask 11010000
          -95 callgsubr
          20 576 -43 callsubr
        </CharString>
        <CharString name="J">
          -181 -226 -21 947 -54 callgsubr
          endchar
        </CharString>
        <CharString name="Jcircumflex">
          -181 -226 -21 1167 -54 callgsubr
          149 1133 -98 callgsubr
        </CharString>
        <CharString name="K">
          73 8 callsubr
          -20 hstem
          123 103 vstem
          307 385 rmoveto
          155 200 52 68 42 33 23 4 rlinecurve
          10 -126 vlineto
          -28 -17 -31 -47 -61 vhcurveto
          -163 -211 rlineto
          120 vlineto
          37 6 132 10 callgsubr
          -92 -77 vvcurveto
          -279 vlineto
          -87 -6 -81 -76 callsubr
          136 vlineto
          129 -175 84 -114 23 -29 23 -28 rlinecurve
          164 10 hlineto
          -47 13 -63 64 -102 130 rrcurveto
          endchar
        </CharString>
        <CharString name="L">
          -14 -61 callgsubr
          endchar
        </CharString>
        <CharString name="Ldotaccent">
          296 -61 callgsubr
          312 320 -31 callsubr
          endchar
        </CharString>
        <CharString name="Lslash">
          -23 0 60 640 -20 hstemhm
          2 215 -103 103 hintmask 11100000
          99 -46 callgsubr
          160 vlineto
          41 16 44 18 59 19 4 62 rcurveline
          -51 -22 -46 -19 -51 -20 rrcurveto
          67 vlineto
          37 6 133 9 36 vhcurveto
          -37 callgsubr
          hintmask 11010000
          3 callgsubr
          -13 callgsubr
          -109 vlineto
          -33 -12 -36 -12 -40 -13 -5 -64 rcurveline
          28 13 47 18 39 15 rrcurveto
          -116 vlineto
          -86 -6 -82 9 callgsubr
          endchar
        </CharString>
        <CharString name="M">
          352 12 -21 30 -21 715 -20 hstemhm
          107 66 496 114 -94 94 hintmask 01111000
          107 702 rmoveto
          -10 vlineto
          7 -69 -3 -162 -4 -92 -8 -199 -22 -145 -2 -15 rrcurveto
          -10 99 17 vlineto
          -1 46 -5 80 5 171 rrcurveto
          4 148 8 117 7 vvcurveto
          2 -4 2 -5 30 -85 rrcurveto
          hintmask 10111000
          58 -164 103 -303 -34 vvcurveto
          109 10 44 165 112 342 24 70 rlinecurve
          hintmask 01110100
          4 -57 9 -38 7 -160 6 -123 -4 -137 -1 -46 rrcurveto
          -17 130 7 vlineto
          -19 119 -9 93 -9 150 -13 219 3 89 1 28 rrcurveto
          10 vlineto
          -148 -15 -5 -29 -16 -60 -17 -61 rlinecurve
          -18 -63 -24 -92 -99 -299 -40 119 -108 310 -27 86 -10 32 -12 45 -4 25 rrcurveto
          endchar
        </CharString>
        <CharString name="N">
          173 11 -21 31 -21 709 -77 callsubr
          endchar
        </CharString>
        <CharString name="Nacute">
          173 11 -21 31 -21 949 -77 callsubr
          201 747 -66 callsubr
        </CharString>
        <CharString name="Ntilde">
          177 11 -21 31 -21 781 80 22 callgsubr
          94 68 390 69 hintmask 01101100
          180 -14 callgsubr
          hintmask 10101100
          378 -585 rlineto
          hintmask 01101100
          -88 callsubr
          363 781 -41 callgsubr
          hintmask 10011100
          -51 callsubr
          hintmask 10101100
          -25 callgsubr
          endchar
        </CharString>
        <CharString name="O">
          -22 callgsubr
          -71 callgsubr
          endchar
        </CharString>
        <CharString name="OE">
          518 -12 71 -59 59 280 58 244 60 -60 73 hstemhm
          49 113 429 114 hintmask 10101110
          782 -50 callsubr
          25 75 -406 -3 rlineto
          -7 vlineto
          3 -14 3 -24 3 -27 rrcurveto
          52 -51 -68 34 -85 hhcurveto
          -206 -138 -167 -200 -207 118 -152 198 91 81 40 61 60 hvcurveto
          -3 -35 -5 -28 -5 -19 rrcurveto
          hintmask 01110110
          -7 425 -60 callsubr
          -24 0 3 -23 hvcurveto
          -5 38 1 205 30 vvcurveto
          1 18 31 2 45 hhcurveto
          51 37 -4 -4 34 -11 callsubr
          16 68 -239 -4 rlineto
          30 0 178 28 callgsubr
          2 23 29 28 callsubr
          -191 -310 3 callsubr
          -191 -52 150 162 89 25 101 40 49 hvcurveto
          17 26 61 14 45 hhcurveto
          183 49 -139 -169 hvcurveto
          endchar
        </CharString>
        <CharString name="Oacute">
          -81 callsubr
          hintmask 10111100
          -296 410 -84 callsubr
        </CharString>
        <CharString name="Ocircumflex">
          -22 callgsubr
          189 -20 -71 callgsubr
          -256 562 -98 callgsubr
        </CharString>
        <CharString name="Odieresis">
          -22 callgsubr
          32 104 9 -20 -73 callsubr
          -279 509 -106 callgsubr
          hintmask 11011100
          190 13 -96 callgsubr
        </CharString>
        <CharString name="Ograve">
          -81 callsubr
          -128 443 -53 callsubr
          rrcurveto
          hintmask 10111100
          21 callsubr
        </CharString>
        <CharString name="Oslash">
          239 -56 -21 65 71 582 73 27 -20 15 callsubr
          347 rmoveto
          -119 39 -101 71 -64 vhcurveto
          -47 -61 -37 -47 -22 -26 rrcurveto
          -6 vlineto
          92 16 21 36 22 32 16 23 rlinecurve
          -27 45 54 -15 62 hhcurveto
          193 146 168 200 103 -26 89 -52 63 hvcurveto
          42 53 35 43 24 28 rrcurveto
          6 vlineto
          -87 -13 rlineto
          0 -22 -37 -28 -43 vhcurveto
          42 -51 -67 24 -84 hhcurveto
          -192 -147 -167 -200 hvcurveto
          169 -208 rmoveto
          -44 59 -12 85 88 vvcurveto
          89 25 101 40 49 vhcurveto
          17 26 61 14 45 hhcurveto
          82 57 -26 -45 37 hvcurveto
          -107 -148 -101 -141 -109 -142 rrcurveto
          373 194 3 callsubr
          -63 -51 15 27 -36 hvcurveto
          74 104 122 175 110 146 rrcurveto
          24 -53 6 -68 -72 vvcurveto
          endchar
        </CharString>
        <CharString name="Otilde">
          -22 callgsubr
          67 80 -32 75 -73 callsubr
          -144 440 -41 callgsubr
          hintmask 11011100
          -51 callsubr
          hintmask 11101100
          -25 callgsubr
          endchar
        </CharString>
        <CharString name="P">
          86 21 -21 277 45 327 51 2 callsubr
          242 113 vstem
          249 hmoveto
          6 vlineto
          -13 32 -6 64 33 vvcurveto
          151 vlineto
          -5 25 40 -4 21 hhcurveto
          151 118 81 151 141 -105 50 -153 hvcurveto
          -30 -93 -2 -34 -33 -22 2 -4 hhcurveto
          -7 vlineto
          12 -41 4 -81 -38 vvcurveto
          -383 vlineto
          -37 -6 -71 -13 -48 callgsubr
          vlineto
          214 649 rmoveto
          105 45 -51 -99 -111 -55 -66 -106 -22 -31 3 8 -28 hvcurveto
          137 vlineto
          77 0 72 2 27 vhcurveto
          3 23 45 0 22 hhcurveto
          endchar
        </CharString>
        <CharString name="Q">
          215 -78 -21 87 68 585 73 15 callsubr
          339 rmoveto
          -194 118 -157 196 54 48 12 21 43 vhcurveto
          40 -42 26 -31 38 -47 112 40 rcurveline
          -1 6 -67 35 -43 41 -42 39 rlinecurve
          78 66 55 97 140 vvcurveto
          198 -111 151 -197 -205 -142 -163 -212 vhcurveto
          542 5 rmoveto
          -100 -22 -89 -39 -56 vhcurveto
          -33 30 -35 34 -23 27 -69 -30 rcurveline
          -4 vlineto
          29 -27 35 -32 31 -32 rrcurveto
          -6 -21 -19 -3 -26 hhcurveto
          -187 -50 158 148 107 26 92 39 49 hvcurveto
          18 29 56 13 53 hhcurveto
          178 48 -149 -148 hvcurveto
          endchar
        </CharString>
        <CharString name="R">
          16 callsubr
          -101 callgsubr
          endchar
        </CharString>
        <CharString name="Racute">
          16 callsubr
          249 -20 -101 callgsubr
          -72 98 -66 callsubr
        </CharString>
        <CharString name="Rcaron">
          16 callsubr
          219 -20 -101 callgsubr
          63 98 -58 callsubr
        </CharString>
        <CharString name="Rcommaaccent">
          104 -215 -21 257 -21 649 51 2 callsubr
          78 72 72 111 vstem
          380 -93 callsubr
          183 610 -105 callgsubr
          endchar
        </CharString>
        <CharString name="S">
          25 -11 69 590 64 hstem
          69 83 258 90 vstem
          152 562 rmoveto
          28 10 28 11 14 vhcurveto
          11 20 32 5 24 hhcurveto
          68 76 -41 -53 53 hvcurveto
          19 40 10 34 7 38 rrcurveto
          25 -54 -71 21 -71 hhcurveto
          -110 -107 -50 -132 hvcurveto
          -235 341 50 -177 vvcurveto
          -32 -11 -38 -14 -17 vhcurveto
          -15 -24 -28 -8 -32 hhcurveto
          -79 -81 48 62 -51 hvcurveto
          -19 -28 -15 -41 -2 -46 rrcurveto
          -44 62 66 -20 78 hhcurveto
          141 99 66 139 hvcurveto
          261 -348 -60 167 vvcurveto
          endchar
        </CharString>
        <CharString name="T">
          -50 21 -21 644 56 3 -20 hstemhm
          191 103 hintmask 11010000
          -3 614 rmoveto
          48 12 54 16 87 2 rrcurveto
          5 -52 0 -88 -25 vvcurveto
          -275 vlineto
          -76 -6 -86 -7 -48 callgsubr
          131 7 vlineto
          -8 35 -7 90 76 vvcurveto
          275 vlineto
          25 0 84 5 52 vhcurveto
          88 -2 54 -16 47 -12 rrcurveto
          7 hlineto
          hintmask 10110000
          29 3 25 4 35 vhcurveto
          hintmask 11010000
          -1 -67 -80 -2 -113 hhcurveto
          hintmask 10110000
          -113 -77 2 1 -67 hvcurveto
          4 -35 1 -25 -29 vvcurveto
          endchar
        </CharString>
        <CharString name="Thorn">
          83 21 -21 195 45 324 51 84 -20 2 callsubr
          239 113 vstem
          230 203 rmoveto
          -3 24 20 -5 38 hhcurveto
          153 117 80 149 141 -104 50 -152 hvcurveto
          -90 hlineto
          3 33 3 30 3 14 rrcurveto
          -37 callgsubr
          8 -32 6 -77 1 -71 rrcurveto
          -362 vlineto
          -37 -6 -71 -13 -48 callgsubr
          141 6 vlineto
          -13 32 -6 65 33 vvcurveto
          91 428 rmoveto
          104 44 -51 -99 -109 -54 -65 -104 -22 -31 3 8 -28 hvcurveto
          136 vlineto
          76 0 72 2 27 vhcurveto
          3 23 44 -1 22 hhcurveto
          endchar
        </CharString>
        <CharString name="U">
          164 -12 69 643 -20 hstem
          88 0 callgsubr
          609 -57 callgsubr
          -51 -119 vvcurveto
          -206 -3 -92 -37 -60 vhcurveto
          -18 -26 -50 -12 -54 hhcurveto
          -159 -16 106 158 hvcurveto
          134 vlineto
          115 4 64 9 59 vhcurveto
          -49 callsubr
          -198 74 -89 193 176 78 74 249 vhcurveto
          endchar
        </CharString>
        <CharString name="Uacute">
          -73 callgsubr
          -325 440 -84 callsubr
        </CharString>
        <CharString name="Ucircumflex">
          164 -12 64 851 -94 callgsubr
          -294 592 -98 callgsubr
        </CharString>
        <CharString name="Udieresis">
          207 -12 64 703 104 hstem
          122 0 callgsubr
          643 -99 callsubr
          -114 548 -94 callsubr
        </CharString>
        <CharString name="Ugrave">
          -73 callgsubr
          -173 473 -51 callgsubr
          endchar
        </CharString>
        <CharString name="V">
          86 8 -21 713 -20 hstem
          429 422 rmoveto
          -32 -112 -33 -119 -34 -116 -131 423 rcurveline
          -28 90 -13 45 50 vvcurveto
          17 -163 -10 vlineto
          19 -13 24 -46 53 -139 rrcurveto
          29 -76 130 -379 -50 vvcurveto
          122 12 37 134 48 143 39 123 rlinecurve
          25 75 62 179 47 37 rrcurveto
          10 -146 -17 vlineto
          -1 -25 -2 -29 -7 -40 -9 -47 -20 -60 -16 -60 rrcurveto
          endchar
        </CharString>
        <CharString name="W">
          416 8 -21 713 -20 hstem
          706 75 rmoveto
          -44 154 -26 90 -28 101 -20 71 -13 54 -10 45 -8 35 -6 28 -5 47 rrcurveto
          -123 hlineto
          -1 -35 -7 -45 -5 -30 -8 -47 -11 -58 -16 -63 -21 -84 -56 -209 -16 -54 -106 423 rcurveline
          -6 23 -25 87 75 vvcurveto
          17 -149 -10 vlineto
          20 -24 10 -23 43 -151 rrcurveto
          29 -102 101 -346 -57 vvcurveto
          128 12 59 206 -54 -165 107 371 rlinecurve
          14 50 16 42 12 49 rrcurveto
          2 hlineto
          18 -67 11 -44 9 -31 rrcurveto
          6 -21 99 -354 -48 vvcurveto
          128 12 48 173 69 326 90 192 rlinecurve
          10 -135 -17 vlineto
          -25 -1 -28 -4 -40 vhcurveto
          -21 -202 -81 -245 -13 -68 rrcurveto
          endchar
        </CharString>
        <CharString name="X">
          56 20 -21 22 -21 700 -20 hstemhm
          177 248 hintmask 01110000
          240 355 rmoveto
          -43 -71 -77 -114 -17 -27 -45 -71 -40 -44 -32 -18 rrcurveto
          -10 vlineto
          hintmask 10110000
          143 -1 rlineto
          23 17 50 32 60 vhcurveto
          18 34 40 68 45 68 40 -69 rcurveline
          76 -144 28 -36 -45 vvcurveto
          hintmask 01110000
          -8 177 10 vlineto
          -38 20 -36 42 -103 173 -83 133 rcurveline
          46 72 -26 -41 99 148 43 65 27 38 47 30 rrcurveto
          10 -144 vlineto
          -23 -15 -45 -34 -65 vhcurveto
          -15 -29 -25 -43 -43 -65 -32 53 rcurveline
          -51 85 -42 71 50 vvcurveto
          11 -174 -10 vlineto
          32 -15 41 -44 85 -143 rrcurveto
          endchar
        </CharString>
        <CharString name="Y">
          -26 8 callsubr
          -76 callgsubr
          endchar
        </CharString>
        <CharString name="Yacute">
          -26 21 -21 887 -76 callgsubr
          -122 541 -84 callsubr
        </CharString>
        <CharString name="Z">
          -23 0 60 581 60 4 -20 hstemhm
          hintmask 10100000
          475 705 rmoveto
          -427 -7 -17 -96 rlineto
          7 hlineto
          hintmask 11000000
          21 47 102 18 99 hhcurveto
          35 40 0 -3 23 hvcurveto
          -388 -587 29 -51 rlineto
          476 7 callsubr
          -43 -129 -13 -99 hhcurveto
          -35 -59 0 3 -23 hvcurveto
          385 582 rlineto
          endchar
        </CharString>
        <CharString name="a">
          -50 callgsubr
          -14 callsubr
          hintmask 10111100
          330 106 -96 callsubr
          hintmask 01111100
          -104 callgsubr
          hintmask 10111100
          -52 callgsubr
        </CharString>
        <CharString name="aacute">
          -16 callsubr
          215 -90 callsubr
          138 -450 -103 callgsubr
        </CharString>
        <CharString name="acircumflex">
          -50 callgsubr
          237 -20 -14 callsubr
          hintmask 10111110
          208 -78 callgsubr
          52 -623 -103 callgsubr
        </CharString>
        <CharString name="acute">
          551 -21 202 -20 hstem
          168 -90 callsubr
          endchar
        </CharString>
        <CharString name="acute.cap">
          772 -21 136 -20 hstem
          142 751 -84 callsubr
        </CharString>
        <CharString name="adieresis">
          -50 callgsubr
          93 106 -14 callsubr
          hintmask 10111110
          392 691 -83 callsubr
          -224 -67 callsubr
          146 -572 -103 callgsubr
        </CharString>
        <CharString name="ae">
          243 -11 65 -65 78 143 51 -26 56 148 53 hstemhm
          45 98 187 106 204 99 hintmask 01011111
          715 116 rmoveto
          -28 -49 -62 -21 -42 hhcurveto
          -67 -59 52 116 -41 callsubr
          -51 91 -124 -66 -54 -26 -49 -44 vhcurveto
          49 -30 -57 26 -76 hhcurveto
          -54 -65 -13 -19 -59 hvcurveto
          -83 callgsubr
          -63 vlineto
          hintmask 10101111
          -88 4 rlineto
          -110 -87 -30 -105 -97 75 -40 80 85 55 46 39 36 hvcurveto
          -57 37 74 -28 52 hhcurveto
          89 94 74 15 18 hvcurveto
          -305 209 -40 callgsubr
          33 5 20 hhcurveto
          75 19 -71 -76 hvcurveto
          -291 -176 rmoveto
          -34 -26 -49 -31 -54 hhcurveto
          -43 -34 30 53 18 4 23 11 16 hvcurveto
          11 17 41 5 24 hhcurveto
          29 42 -7 -7 22 hvcurveto
          3 -27 6 -27 7 -23 rrcurveto
          endchar
        </CharString>
        <CharString name="agrave">
          -16 callsubr
          334 -81 callgsubr
          19 -424 -103 callgsubr
        </CharString>
        <CharString name="ampersand">
          236 -36 -21 45 65 351 50 201 56 hstemhm
          40 96 -28 79 345 71 hintmask 11110110
          617 402 rmoveto
          49 hlineto
          27 58 rlineto
          0 -102 -6 -33 -35 -76 7 0 vhcurveto
          -40 -58 106 2 rlineto
          14 -44 5 -31 -42 vvcurveto
          -38 -4 -33 -6 -28 vhcurveto
          -54 39 -61 50 -32 28 rrcurveto
          -125 107 -63 80 72 vvcurveto
          53 34 37 59 31 48 -11 -64 76 vhcurveto
          12 15 10 21 8 29 4 14 2 13 1 10 rrcurveto
          2 -6 -89 27 -90 hhcurveto
          -91 -88 -27 -109 -51 19 -50 46 -60 hvcurveto
          hintmask 11111010
          -38 -10 -95 -45 -141 vvcurveto
          -127 78 -103 180 97 80 33 64 54 vhcurveto
          73 -57 7 -5 50 -38 52 -42 rlinecurve
          66 89 -76 39 -62 36 -68 47 rlinecurve
          21 46 11 57 65 vvcurveto
          34 -3 35 -1 11 vhcurveto
          -253 -162 rmoveto
          48 -43 51 -43 45 -37 -5 -7 -6 -6 -6 -5 rrcurveto
          -28 -32 -56 -18 -60 hhcurveto
          -136 -53 93 92 70 31 48 35 24 hvcurveto
          36 -41 47 -45 61 -54 rrcurveto
          endchar
        </CharString>
        <CharString name="aring">
          -50 callgsubr
          48 46 97 49 hstemhm
          45 98 8 47 97 48 -13 94 hintmask 1011111110000000
          343 641 rmoveto
          52 -37 39 -54 -58 -43 -46 -55 -52 38 -39 55 57 42 46 55 vhcurveto
          -48 -4 rmoveto
          -34 -18 -17 -32 -29 -18 15 30 35 19 17 32 29 17 -15 -31 vhcurveto
          hintmask 1011111101000000
          35 -531 -96 callsubr
          hintmask 0111111101000000
          -104 callgsubr
          hintmask 1011111110000000
          -52 callgsubr
        </CharString>
        <CharString name="asciicircum">
          65 400 -21 303 -20 hstem
          272 682 rmoveto
          -154 -303 rlineto
          78 hlineto
          106 213 101 -213 rlineto
          81 hlineto
          -148 303 rlineto
          endchar
        </CharString>
        <CharString name="asciitilde">
          103 222 69 -21 21 -21 70 hstemhm
          hintmask 01000000
          528 327 rmoveto
          -22 -32 -37 -14 -38 hhcurveto
          hintmask 00100000
          -66 -78 49 -62 hhcurveto
          -42 -53 -22 -21 -40 hvcurveto
          32 -66 rlineto
          25 35 33 14 41 hhcurveto
          hintmask 10000000
          65 70 -48 66 hhcurveto
          45 57 21 19 36 hvcurveto
          endchar
        </CharString>
        <CharString name="asterisk">
          -118 382 -21 339 -20 hstem
          45 481 rmoveto
          28 13 49 11 52 6 -23 -33 -37 -41 -25 -22 -2 -7 rcurveline
          75 -47 6 6 6 31 13 45 22 47 rlinecurve
          22 -39 26 -50 7 -35 5 -5 rcurveline
          76 48 -3 7 -27 18 -38 36 -33 42 rlinecurve
          53 -6 48 -13 29 -13 7 2 rcurveline
          1 91 -7 1 -34 -11 -53 -6 -42 -4 rlinecurve
          34 39 36 36 28 18 1 7 rcurveline
          -76 47 -5 -5 -8 -36 -25 -52 -22 -38 rlinecurve
          -24 49 -11 46 -6 31 -6 5 rcurveline
          -76 -47 3 -7 25 -21 32 -37 24 -33 rlinecurve
          -42 3 -51 6 -33 10 -7 -1 rcurveline
          1 -89 rlineto
          endchar
        </CharString>
        <CharString name="at">
          269 -43 55 120 53 -53 69 307 47 102 56 hstemhm
          35 84 86 83 157 61 199 64 hintmask 1101111110000000
          596 64 rmoveto
          -29 -56 -63 -23 -72 hhcurveto
          -148 -138 99 225 147 59 95 97 59 hvcurveto
          15 43 44 5 32 hhcurveto
          114 197 -62 -193 -118 -73 -99 -86 -21 -19 9 35 16 2 21 8 29 hvcurveto
          68 246 rlineto
          6 -17 -49 8 -40 hhcurveto
          -183 -90 -171 -143 -94 39 -15 26 39 58 32 96 79 hvcurveto
          3 1 rlineto
          -3 -17 -1 -23 -7 vvcurveto
          -48 23 -34 65 126 110 117 155 158 -115 151 -228 -251 -140 -182 -213 -233 169 -128 185 90 77 30 44 61 vhcurveto
          -154 324 rmoveto
          -9 -40 -22 -26 -38 -37 rrcurveto
          hintmask 1011111110000000
          -26 -27 -28 -25 -22 hhcurveto
          -22 -7 23 29 27 6 34 7 28 hvcurveto
          17 68 26 48 29 37 rrcurveto
          10 24 27 3 18 hhcurveto
          17 22 -3 -10 17 hvcurveto
          endchar
        </CharString>
        <CharString name="atilde">
          -50 callgsubr
          77 80 -32 32 -32 75 -14 callsubr
          hintmask 1011010110000000
          323 -44 callgsubr
          hintmask 1011001110000000
          -75 callgsubr
          hintmask 1011100110000000
          -25 callgsubr
          7 -463 -96 callsubr
          hintmask 0111100110000000
          -104 callgsubr
          hintmask 1011100110000000
          -52 callgsubr
        </CharString>
        <CharString name="b">
          51 -11 65 363 74 256 -20 hstem
          97 94 246 107 vstem
          326 54 rmoveto
          -48 -50 15 19 -37 hvcurveto
          272 vlineto
          32 47 44 25 51 hhcurveto
          93 11 -104 -63 -70 -21 -88 -22 -26 hvcurveto
          -9 -16 -30 -3 -22 hhcurveto
          -135 600 rmoveto
          -34 callsubr
          -138 -39 callgsubr
          25 -24 22 -44 -56 vvcurveto
          -413 vlineto
          -59 -4 -59 -7 -19 vhcurveto
          -6 vlineto
          -25 78 66 -17 75 -12 callsubr
          endchar
        </CharString>
        <CharString name="backslash">
          -246 -125 -21 877 -20 hstem
          -72 654 rmoveto
          0 103 -191 16 -30 vhcurveto
          42 -83 195 -399 36 -93 4 -4 rcurveline
          46 90 -25 47 -23 39 -19 35 rlinecurve
          -59 113 -218 423 -47 126 -5 4 rcurveline
          endchar
        </CharString>
        <CharString name="bar">
          -310 -156 -21 916 -20 hstem
          73 74 vstem
          147 -147 rmoveto
          747 15 callgsubr
          -7 vlineto
          1 -879 rlineto
          endchar
        </CharString>
        <CharString name="braceleft">
          -123 -173 43 843 43 hstem
          136 80 vstem
          216 103 rmoveto
          109 -60 44 -28 15 vhcurveto
          3 vlineto
          35 22 53 31 109 vvcurveto
          123 vlineto
          82 3 72 84 22 28 -2 -2 18 vhcurveto
          7 34 rlineto
          7 -28 -35 6 -28 hhcurveto
          -144 -7 -109 -110 hvcurveto
          -125 vlineto
          -87 -51 -30 -32 -20 vhcurveto
          -7 vlineto
          30 -16 52 -26 -87 vvcurveto
          -93 vlineto
          -123 15 -96 138 28 35 6 7 28 vhcurveto
          -7 34 rlineto
          -2 -18 -28 -2 -22 hhcurveto
          -86 1 -2 75 83 vvcurveto
          endchar
        </CharString>
        <CharString name="braceright">
          -122 -173 43 843 43 hstem
          199 81 vstem
          199 29 rmoveto
          -82 -2 -77 -84 -22 -28 2 2 -18 vhcurveto
          -4 -9 -2 -9 -3 -10 1 -6 rcurveline
          -7 28 36 -6 28 hhcurveto
          144 7 109 110 hvcurveto
          93 vlineto
          87 52 26 30 16 vhcurveto
          7 vlineto
          -32 20 -51 30 87 vvcurveto
          125 vlineto
          110 -7 109 -144 -28 -36 -6 -7 -28 vhcurveto
          -1 -6 3 -10 2 -9 4 -9 rlinecurve
          2 18 28 2 22 hhcurveto
          84 3 -72 -82 hvcurveto
          -123 vlineto
          -109 53 -31 35 -22 vhcurveto
          -3 vlineto
          -28 -15 -60 -44 -109 vvcurveto
          endchar
        </CharString>
        <CharString name="bracketleft">
          7 callgsubr
          95 82 hintmask 10101000
          180 -135 rmoveto
          -2 30 -1 38 25 vvcurveto
          760 27 vlineto
          51 42 -9 -9 22 -11 callsubr
          hintmask 01011000
          30 60 -260 -3 -1 -930 261 -3 -30 60 rlineto
          -7 hlineto
          hintmask 10101000
          -9 -22 -44 -10 -50 hhcurveto
          endchar
        </CharString>
        <CharString name="bracketright">
          7 callgsubr
          254 81 hintmask 10101000
          228 -135 rmoveto
          -50 -44 10 9 -22 hvcurveto
          -7 hlineto
          hintmask 01011000
          -30 -60 261 3 -1 930 -260 3 30 -60 rlineto
          7 hlineto
          hintmask 10101000
          9 22 42 9 51 hhcurveto
          27 -760 hlineto
          -25 -1 -38 -2 -30 vhcurveto
          endchar
        </CharString>
        <CharString name="brokenbar">
          -310 -127 -21 381 135 375 -20 hstem
          73 74 vstem
          73 233 rmoveto
          1 -381 73 30 rlineto
          351 vlineto
          135 vmoveto
          236 15 callgsubr
          -345 vlineto
          endchar
        </CharString>
        <CharString name="bullet">
          -7 339 457 rmoveto
          -56 7 -84 -20 -38 -21 -16 -16 rcurveline
          -9 -55 13 -94 24 -32 20 -10 rcurveline
          38 -6 91 10 44 28 17 15 rcurveline
          11 50 -14 98 -24 36 rrcurveto
          endchar
        </CharString>
        <CharString name="c">
          -47 -11 77 361 66 hstem
          44 106 vstem
          -42 callsubr
          -146 80 -101 135 76 102 77 11 16 hvcurveto
          -3 callgsubr
        </CharString>
        <CharString name="caron">
          541 -21 182 -20 hstem
          303 530 -58 callsubr
        </CharString>
        <CharString name="caron.cap">
          751 26 callsubr
          303 740 rmoveto
          24 51 33 45 48 39 -32 28 rcurveline
          -49 -33 -47 -39 -32 -45 -28 37 -54 49 -43 31 -31 -31 rcurveline
          46 -41 36 -46 29 -55 rrcurveto
          endchar
        </CharString>
        <CharString name="ccedilla">
          -47 -224 44 -44 159 492 66 hstemhm
          44 106 140 76 hintmask 10111000
          -42 callsubr
          -137 70 -97 119 -12 hvcurveto
          -38 -80 -48 callsubr
          38 61 69 16 77 58 14 10 rlinecurve
          -3 callgsubr
        </CharString>
        <CharString name="cedilla">
          -224 44 -44 159 63 -20 hstemhm
          378 76 hintmask 10110000
          283 -90 rmoveto
          -64 callgsubr
          hintmask 01110000
          -15 callsubr
          36 59 rlineto
          0 -53 7 -1 vhcurveto
          endchar
        </CharString>
        <CharString name="cent">
          -51 -110 -21 120 77 544 -20 hstem
          40 106 106 48 vstem
          392 375 rmoveto
          21 23 13 25 17 27 -43 29 -61 12 -39 2 rrcurveto
          32 2 35 5 43 vhcurveto
          -4 7 -55 -26 rlineto
          3 -33 1 -31 -30 vvcurveto
          -115 -19 -97 -101 -134 vvcurveto
          -145 78 -100 133 -2 vhcurveto
          6 callgsubr
          -4 35 0 41 36 vvcurveto
          60 17 63 44 21 15 5 4 rcurveline
          -25 39 -13 -10 -57 -26 -54 -10 rlinecurve
          352 vlineto
          27 -7 31 -14 34 -26 rrcurveto
          -246 -129 rmoveto
          76 26 75 45 27 vhcurveto
          2 16 10 1 9 hhcurveto
          -361 vlineto
          -79 6 -27 85 89 vvcurveto
          endchar
        </CharString>
        <CharString name="circumflex">
          551 26 callsubr
          207 703 -98 callgsubr
        </CharString>
        <CharString name="circumflex.cap">
          751 26 callsubr
          209 903 -98 callgsubr
        </CharString>
        <CharString name="colon">
          -204 11 -21 hstem
          204 462 -61 callsubr
          8 -351 -61 callsubr
          endchar
        </CharString>
        <CharString name="comma">
          -260 -159 -21 hstem
          96 101 vstem
          197 -20 callgsubr
          -2 -2 -3 -5 -1 -3 rrcurveto
          13 -22 10 -29 -27 vvcurveto
          -61 -22 -43 -42 -63 vhcurveto
          52 -21 rlineto
          56 61 57 68 82 vvcurveto
          endchar
        </CharString>
        <CharString name="commaaccent">
          -312 -215 -21 hstem
          123 72 vstem
          195 -93 callsubr
          endchar
        </CharString>
        <CharString name="copyright">
          221 -1 57 114 59 425 57 hstem
          31 63 109 93 371 -65 callsubr
          -371 15 rmoveto
          58 19 58 36 20 vhcurveto
          3 20 8 0 9 hhcurveto
          28 33 -10 -30 42 hvcurveto
          16 17 11 20 13 20 rrcurveto
          25 -38 -54 8 -30 hhcurveto
          -106 -100 -83 -113 -112 67 -77 110 63 81 59 8 12 hvcurveto
          -19 30 rlineto
          -9 -12 -70 -29 -48 hhcurveto
          -68 -23 67 70 hvcurveto
          endchar
        </CharString>
        <CharString name="currency">
          16 150 -21 26 66 261 64 26 -20 hstem
          80 70 252 70 vstem
          429 228 rmoveto
          28 34 15 44 44 vvcurveto
          44 -15 44 -27 35 vhcurveto
          -1 hlineto
          79 74 -61 25 -5 -5 -52 -57 rlineto
          24 -33 -41 12 -40 hhcurveto
          -41 -40 -12 -25 -32 hvcurveto
          -52 57 -5 5 -61 -25 24 -24 30 -27 23 -22 rlinecurve
          -25 -36 -17 -43 -44 vvcurveto
          -44 17 -43 25 -35 vhcurveto
          -77 -72 61 -26 5 6 51 56 rlineto
          -24 33 40 -13 41 hhcurveto
          40 41 12 24 33 hvcurveto
          52 -57 5 -5 61 25 rlineto
          -106 197 rmoveto
          -72 -54 -58 -73 -73 -52 59 71 72 52 59 73 73 54 -59 -72 vhcurveto
          endchar
        </CharString>
        <CharString name="d">
          34 -11 74 -60 -21 449 61 255 -20 hstemhm
          49 106 236 94 hintmask 10111100
          255 -11 rmoveto
          50 51 29 46 47 hvcurveto
          hintmask 01111100
          7 -27 9 -33 9 -22 109 26 rcurveline
          -2 10 rlineto
          -30 21 -20 61 59 vvcurveto
          495 -13 callsubr
          -114 vlineto
          12 -35 -46 7 -30 24 callgsubr
          hvcurveto
          hintmask 10111100
          -131 59 -117 147 vhcurveto
          -63 424 rmoveto
          13 17 29 5 23 hhcurveto
          46 51 20 callgsubr
          -45 -1 callgsubr
        </CharString>
        <CharString name="degree">
          -176 424 55 173 55 hstem
          39 46 192 45 vstem
          180 707 rmoveto
          -83 -58 -61 -83 -83 61 -56 83 83 56 60 83 83 -59 57 -83 hvcurveto
          6 -228 rmoveto
          -58 -43 18 74 19 3 20 7 15 hvcurveto
          17 16 36 10 27 hhcurveto
          55 48 -22 -76 -13 -3 -22 -7 -15 hvcurveto
          -18 -18 -37 -7 -26 hhcurveto
          endchar
        </CharString>
        <CharString name="dieresis">
          585 106 -94 -21 hstemhm
          hintmask 10000000
          396 691 -83 callsubr
          -224 -47 callgsubr
          hintmask 01000000
          -55 callgsubr
          endchar
        </CharString>
        <CharString name="dieresis.cap">
          746 104 9 -20 hstemhm
          hintmask 10000000
          178 850 -106 callgsubr
          hintmask 01000000
          210 13 -96 callgsubr
        </CharString>
        <CharString name="divide">
          -1 130 95 63 66 65 95 hstem
          216 95 vstem
          216 466 rmoveto
          -6 callgsubr
          -289 vmoveto
          -6 callgsubr
          310 177 -11 callgsubr
        </CharString>
        <CharString name="dollar">
          23 -110 -21 949 -20 hstem
          69 78 108 48 112 85 vstem
          446 569 rmoveto
          19 35 10 29 7 33 -50 23 -71 20 -58 3 rrcurveto
          29 2 32 5 38 vhcurveto
          -4 7 -55 -26 2 -29 1 -26 1 -27 rlinecurve
          -104 -9 -82 -53 -122 vvcurveto
          -111 95 -40 91 -40 vhcurveto
          -278 vlineto
          -68 13 -56 38 -41 45 -19 -26 -15 -37 -2 -42 59 -40 67 -17 74 -2 6 callgsubr
          -3 33 -1 39 34 vvcurveto
          118 11 79 62 141 vvcurveto
          119 -103 44 -94 42 vhcurveto
          236 vlineto
          51 -13 52 -30 40 -34 rrcurveto
          -31 -397 rmoveto
          -37 -12 -40 -14 -18 vhcurveto
          -16 -25 -34 -8 -27 hhcurveto
          260 vlineto
          62 -31 50 -38 -72 vvcurveto
          -268 387 rmoveto
          34 10 28 12 15 vhcurveto
          12 21 33 5 29 hhcurveto
          3 -222 hlineto
          -61 30 -47 35 63 vvcurveto
          endchar
        </CharString>
        <CharString name="dotaccentcmb">
          601 -21 hstem
          292 689 -33 callsubr
        </CharString>
        <CharString name="dotaccentcmb.cap">
          807 -21 hstem
          292 895 -33 callsubr
        </CharString>
        <CharString name="dotlessi">
          -272 21 -21 493 -20 hstem
          97 94 vstem
          97 -102 callgsubr
          endchar
        </CharString>
        <CharString name="dotlessj">
          26 callgsubr
          741 -20 hstem
          92 94 vstem
          186 398 -92 callgsubr
          endchar
        </CharString>
        <CharString name="e">
          -26 callgsubr
          hstem
          44 106 205 98 vstem
          429 116 -101 callsubr
        </CharString>
        <CharString name="eacute">
          -10 callsubr
          204 -90 callsubr
          248 -440 -101 callsubr
        </CharString>
        <CharString name="ecircumflex">
          -26 callgsubr
          237 -20 hstem
          44 106 205 98 vstem
          229 -78 callgsubr
          130 -613 -101 callsubr
        </CharString>
        <CharString name="edieresis">
          -26 callgsubr
          93 106 hstem
          44 106 205 98 vstem
          390 691 -63 callgsubr
          -212 -66 callgsubr
          235 -562 -101 callsubr
        </CharString>
        <CharString name="egrave">
          -10 callsubr
          317 -81 callgsubr
          135 -414 -101 callsubr
        </CharString>
        <CharString name="eight">
          37 -12 68 605 51 hstemhm
          52 106 -67 94 212 94 -75 106 hintmask 11011000
          328 398 rmoveto
          -118 64 -25 36 53 vvcurveto
          30 8 42 25 24 vhcurveto
          9 19 25 5 25 hhcurveto
          68 42 -36 -83 -42 -11 -60 -58 -42 hvcurveto
          -78 -67 rmoveto
          hintmask 11100100
          125 -68 41 -37 -63 vvcurveto
          -42 -18 -36 -21 -16 vhcurveto
          -10 -23 -38 -3 -23 hhcurveto
          -92 -43 47 88 58 19 50 73 32 hvcurveto
          126 36 rmoveto
          hintmask 11011000
          54 34 61 49 98 vvcurveto
          121 -94 43 -102 -122 -82 -61 -117 -80 38 -45 69 -46 vhcurveto
          hintmask 11100100
          -68 -23 -78 -52 -109 vvcurveto
          -128 108 -63 127 131 104 67 126 88 -50 39 -96 59 vhcurveto
          endchar
        </CharString>
        <CharString name="emdash">
          405 264 -21 80 -20 hstem
          1 246 rmoveto
          0 210 6 34 94 467 3 -12 98 vhcurveto
          7 hlineto
          30 76 rlineto
          -1 -10 callgsubr
          -128 -1 -504 21 callgsubr
        </CharString>
        <CharString name="endash">
          30 252 63 -51 -21 80 -20 hstemhm
          hintmask 10000000
          246 vmoveto
          0 210 6 34 vhcurveto
          hintmask 01100000
          94 94 3 -12 98 -11 callsubr
          30 76 rlineto
          hintmask 10000000
          -1 -10 callgsubr
          hintmask 01100000
          -128 -1 -131 21 callgsubr
        </CharString>
        <CharString name="equal">
          -1 213 66 101 66 1 -20 hstemhm
          hintmask 11000000
          526 446 rmoveto
          hintmask 10100000
          -515 1 rlineto
          hintmask 11000000
          -1 -67 rlineto
          515 hlineto
          1 -101 -11 callgsubr
        </CharString>
        <CharString name="eth">
          -18 callsubr
          248 -20 -23 callsubr
          87 512 rmoveto
          37 17 72 27 29 11 29 -27 21 -23 20 -25 rrcurveto
          -160 3 -91 -117 -148 vvcurveto
          -60 callgsubr
          118 -42 49 -61 62 vhcurveto
          -40 42 -26 22 -25 28 -24 25 rcurveline
          30 11 32 12 38 12 3 56 rcurveline
          -45 -18 -45 -18 -45 -17 -36 45 -17 24 -18 27 -6 10 rcurveline
          -144 -33 1 -7 45 -23 39 -26 55 -48 rlinecurve
          -29 -11 -32 -11 -35 -11 rrcurveto
          321 -342 -99 callgsubr
        </CharString>
        <CharString name="exclam">
          -269 10 -21 725 -20 hstem
          96 78 vstem
          169 180 rmoveto
          10 270 5 131 5 94 4 29 rlinecurve
          -6 10 -137 -24 rlineto
          -10 vlineto
          23 -16 11 -33 4 -43 rrcurveto
          -3 6 -54 2 -119 vhcurveto
          4 -221 -2 -24 0 vvcurveto
          85 -75 -33 callgsubr
        </CharString>
        <CharString name="exclamdown">
          -269 -212 -21 hstem
          94 78 vstem
          99 301 rmoveto
          -10 -270 -5 -131 -5 -94 -4 -29 rlinecurve
          6 -10 137 24 rlineto
          10 vlineto
          -23 16 -11 33 -4 43 rrcurveto
          3 -6 54 -2 119 vhcurveto
          -4 221 2 24 0 vvcurveto
          -12 177 -33 callgsubr
        </CharString>
        <CharString name="f">
          -180 21 -21 424 56 198 62 hstem
          120 94 vstem
          359 488 rmoveto
          -43 -4 -45 -3 -57 -1 rrcurveto
          58 vlineto
          55 6 57 15 19 vhcurveto
          5 12 14 4 15 hhcurveto
          35 47 -21 -43 48 hvcurveto
          20 29 12 32 11 27 rrcurveto
          18 -40 -67 20 -56 hhcurveto
          -126 -40 -100 -99 hvcurveto
          -60 5 callsubr
          -256 vlineto
          -55 -5 -73 -12 -48 callgsubr
          140 -44 callsubr
          -14 90 62 vvcurveto
          233 vlineto
          30 -1 42 -3 46 -7 rrcurveto
          endchar
        </CharString>
        <CharString name="five">
          1 -12 66 296 71 211 68 3 -20 hstemhm
          389 101 hintmask 11101000
          350 70 rmoveto
          -14 -28 -31 -2 -24 hhcurveto
          -99 -84 65 22 -28 hvcurveto
          -16 -16 -22 -47 -4 -27 rrcurveto
          -33 61 89 -30 81 hhcurveto
          148 97 103 133 161 -125 28 -138 8 hvcurveto
          -69 4 12 67 9 68 22 72 rlinecurve
          50 hlineto
          36 -1 46 -5 36 -12 22 -7 33 -17 22 -21 rrcurveto
          11 hlineto
          hintmask 11011000
          -23 134 -303 -5 -19 -107 -18 -102 -13 -109 rlinecurve
          18 -21 117 -9 rlineto
          107 -8 66 -42 -90 vvcurveto
          -43 -13 -64 -26 -33 vhcurveto
          endchar
        </CharString>
        <CharString name="four">
          29 21 -21 191 71 450 -20 hstem
          321 87 vstem
          410 191 rmoveto
          87 hlineto
          16 79 rlineto
          -1 -29 -40 -5 -36 hhcurveto
          206 0 154 4 88 vhcurveto
          -119 -12 -95 -149 -98 -159 -84 -154 rlinecurve
          23 -48 rlineto
          2 67 89 -1 124 hhcurveto
          -10 vlineto
          -1 -73 -4 -65 -6 -36 rrcurveto
          -7 113 7 vlineto
          -7 36 -4 69 79 vvcurveto
          -89 71 rmoveto
          -1 -71 -80 -2 -70 hhcurveto
          65 121 83 131 73 119 rrcurveto
          2 -88 -2 -143 -137 vvcurveto
          endchar
        </CharString>
        <CharString name="g">
          -19 -228 43 336 50 238 50 hstemhm
          29 64 -24 88 198 98 -41 85 hintmask 11101100
          157 107 rmoveto
          15 22 21 27 14 vhcurveto
          -4 18 19 -2 20 hhcurveto
          109 81 63 110 38 -10 30 -16 24 hvcurveto
          91 -2 -27 57 rlineto
          -4 -41 -36 -4 -41 hhcurveto
          17 -30 -42 9 -42 hhcurveto
          -108 -82 -59 -110 -72 35 -48 53 -27 hvcurveto
          -46 -25 -39 -28 -37 vvcurveto
          -22 14 -27 36 -15 vhcurveto
          hintmask 11110010
          -67 -28 -26 -42 -48 vvcurveto
          -106 130 -23 84 128 126 54 115 82 -63 20 -106 16 vhcurveto
          hintmask 11101010
          -92 14 -79 5 29 vvcurveto
          5 -106 rmoveto
          26 -5 49 -11 37 -7 rrcurveto
          85 -16 53 -10 -51 vvcurveto
          -66 -86 -20 -59 vhcurveto
          hintmask 11110100
          -70 -104 28 77 26 12 34 57 21 hvcurveto
          5 333 rmoveto
          42 11 28 16 22 vhcurveto
          10 18 28 3 19 hhcurveto
          78 18 -49 -64 -37 -6 -49 -22 -25 hvcurveto
          -8 -9 -26 -6 -23 hhcurveto
          -86 -16 83 50 hvcurveto
          endchar
        </CharString>
        <CharString name="germandbls">
          64 -11 61 -29 -21 678 62 hstemhm
          115 94 69 84 36 88 -7 96 hintmask 10111010
          278 392 rmoveto
          -155 201 14 -113 vvcurveto
          -23 -4 -43 -12 -13 vhcurveto
          -6 -9 -22 -3 -10 hhcurveto
          -54 -55 38 27 -21 hvcurveto
          -12 -23 -6 -24 -1 -38 39 -30 53 -12 45 1 rrcurveto
          100 2 65 58 96 179 -213 -32 116 vvcurveto
          hintmask 01111100
          101 124 -6 108 vvcurveto
          93 -68 35 -79 1 vhcurveto
          -128 2 -96 -102 -137 vvcurveto
          -46 5 callsubr
          -232 vlineto
          -55 -5 -73 -12 -48 callgsubr
          111 538 vlineto
          57 6 45 15 21 vhcurveto
          10 13 18 7 32 hhcurveto
          62 43 -20 -55 hvcurveto
          -84 -120 -2 -125 vvcurveto
          endchar
        </CharString>
        <CharString name="grave">
          551 -21 202 -20 hstem
          342 -81 callgsubr
          endchar
        </CharString>
        <CharString name="grave.cap">
          772 -21 136 -20 hstem
          355 784 -51 callgsubr
          endchar
        </CharString>
        <CharString name="greater">
          -3 66 -21 555 -20 hstem
          9 45 rmoveto
          516 242 rlineto
          70 vlineto
          -516 243 rlineto
          -71 vlineto
          434 -207 -434 -207 rlineto
          endchar
        </CharString>
        <CharString name="guillemotleft">
          37 106 13 callgsubr
          67 268 -64 callsubr
          210 -15 -64 callsubr
          endchar
        </CharString>
        <CharString name="guillemotright">
          37 106 13 callgsubr
          511 283 -67 callgsubr
          -202 15 -67 callgsubr
          endchar
        </CharString>
        <CharString name="guilsinglleft">
          -181 101 13 callgsubr
          61 263 -64 callsubr
          endchar
        </CharString>
        <CharString name="guilsinglright">
          -181 101 13 callgsubr
          299 278 -67 callgsubr
          endchar
        </CharString>
        <CharString name="h">
          62 -5 callsubr
          255 25 callsubr
          187 545 rmoveto
          18 callsubr
          -134 -58 callgsubr
          -447 -12 callgsubr
          29 48 46 22 54 hhcurveto
          66 16 -90 callgsubr
          -56 62 -98 -62 -53 -40 -44 -58 vhcurveto
          endchar
        </CharString>
        <CharString name="hbar">
          62 -5 callsubr
          73 55 127 25 callsubr
          -39 559 rmoveto
          0 107 6 41 54 68 0 -6 76 vhcurveto
          7 hlineto
          26 61 rlineto
          -1 -56 -77 -3 -21 hhcurveto
          -54 -81 -2 4 -59 hvcurveto
          -7 hlineto
          202 -73 rmoveto
          18 callsubr
          -134 -58 callgsubr
          -447 -12 callgsubr
          29 48 46 22 54 hhcurveto
          66 16 -90 callgsubr
          -56 62 -98 -62 -53 -40 -44 -58 vhcurveto
          endchar
        </CharString>
        <CharString name="hyphen">
          -49 callgsubr
        </CharString>
        <CharString name="i">
          -272 21 -21 hstem
          97 -69 callgsubr
          endchar
        </CharString>
        <CharString name="iacute">
          -251 21 -21 732 -20 hstem
          99 94 vstem
          99 -102 callgsubr
          5 197 -66 callsubr
        </CharString>
        <CharString name="icircumflex">
          -193 21 -21 729 -20 hstem
          128 94 vstem
          128 -102 callgsubr
          -19 385 -87 callsubr
          endchar
        </CharString>
        <CharString name="idieresis">
          -180 21 -21 585 106 hstem
          133 94 vstem
          133 -102 callgsubr
          158 358 -83 callsubr
          -178 -67 callsubr
          endchar
        </CharString>
        <CharString name="igrave">
          -249 21 -21 732 -20 hstem
          109 94 vstem
          109 -102 callgsubr
          117 223 -86 callgsubr
          endchar
        </CharString>
        <CharString name="ij">
          -21 -227 -21 269 -21 hstem
          97 94 166 -69 callgsubr
          251 4 -72 callsubr
        </CharString>
        <CharString name="itilde">
          -272 21 -21 569 80 22 callgsubr
          97 94 hintmask 11010000
          97 -102 callgsubr
          107 236 -43 callsubr
        </CharString>
        <CharString name="j">
          26 callgsubr
          hstem
          92 94 vstem
          167 712 -72 callsubr
        </CharString>
        <CharString name="jcircumflex">
          26 callgsubr
          951 -20 hstem
          95 94 vstem
          189 398 -92 callgsubr
          -106 593 -98 callgsubr
        </CharString>
        <CharString name="k">
          -3 21 -5 callgsubr
          vstem
          206 hmoveto
          -79 callsubr
        </CharString>
        <CharString name="kcommaaccent">
          -3 -215 -21 257 -5 callgsubr
          70 72 vstem
          332 -93 callsubr
          -126 83 rmoveto
          -79 callsubr
        </CharString>
        <CharString name="kgreenlandic">
          8 21 -21 493 14 callsubr
          vstem
          186 483 rmoveto
          -6 10 -87 callgsubr
          81 vlineto
          115 -137 -69 callsubr
          -169 -141 rlineto
          56 vlineto
          47 -8 38 -8 39 vhcurveto
          endchar
        </CharString>
        <CharString name="l">
          -273 21 -5 callgsubr
          vstem
          208 hmoveto
          -71 callsubr
        </CharString>
        <CharString name="ldot">
          21 21 -5 callgsubr
          vstem
          370 396 -31 callsubr
          -172 -391 rmoveto
          -71 callsubr
        </CharString>
        <CharString name="less">
          -1 66 -21 555 -20 hstem
          526 115 rmoveto
          -434 207 434 207 rlineto
          71 vlineto
          -516 -243 rlineto
          -70 vlineto
          516 -242 rlineto
          endchar
        </CharString>
        <CharString name="logicalnot">
          32 163 -21 217 68 hstem
          495 70 vstem
          565 142 rmoveto
          285 -561 -68 491 -217 vlineto
          endchar
        </CharString>
        <CharString name="lslash">
          -217 21 -21 747 -20 hstem
          111 94 vstem
          2 304 rmoveto
          145 58 48 18 51 21 69 22 rlinecurve
          3 55 -142 -56 -47 -18 -53 -21 -69 -22 rlinecurve
          216 -361 rmoveto
          -71 callsubr
        </CharString>
        <CharString name="m">
          337 -5 callsubr
          14 callgsubr
          94 196 94 203 94 hintmask 11011100
          492 321 rmoveto
          13 -1 12 -1 12 vhcurveto
          30 41 46 22 45 hhcurveto
          56 17 -90 callgsubr
          -56 62 -92 -53 -58 -46 -43 -50 vhcurveto
          60 -20 -47 29 -66 hhcurveto
          -54 -44 -40 -44 -51 hvcurveto
          -3 25 -4 25 -5 25 rrcurveto
          hintmask 10111100
          -6 10 -80 callsubr
          hintmask 11011100
          29 43 37 22 46 hhcurveto
          56 14 -39 -71 hvcurveto
          -160 vlineto
          -37 -5 -61 -10 -48 callgsubr
          124 7 vlineto
          -10 35 -5 61 37 vvcurveto
          endchar
        </CharString>
        <CharString name="macron">
          597 77 hstem
          387 597 rmoveto
          77 -274 -77 vlineto
          endchar
        </CharString>
        <CharString name="mu">
          68 -219 -21 229 82 409 -20 hstem
          88 2 callgsubr
          vstem
          410 76 -97 callgsubr
          -89 callgsubr
          -66 -63 vvcurveto
          -220 vlineto
          -90 8 -107 15 -133 vhcurveto
          160 27 -2 12 -37 22 -23 30 -16 34 rlinecurve
          -12 25 -9 28 -9 64 rrcurveto
          -8 20 27 -5 24 hhcurveto
          67 50 37 50 59 hvcurveto
          endchar
        </CharString>
        <CharString name="multiply">
          28 131 -21 417 -20 hstem
          72 162 rmoveto
          51 -52 158 159 161 -159 51 51 -161 157 159 157 -51 52 -158 -159 -159 159 -51 -51 160 -157 rlineto
          endchar
        </CharString>
        <CharString name="n">
          68 -5 callsubr
          14 callgsubr
          2 callgsubr
          hintmask 10111000
          198 408 rmoveto
          -3 25 -4 25 -5 25 -6 10 rcurveline
          -80 callsubr
          hintmask 11011000
          29 47 44 22 53 hhcurveto
          64 16 -90 callgsubr
          -55 62 -96 -62 -52 -40 -44 -57 vhcurveto
          endchar
        </CharString>
        <CharString name="nacute">
          68 -5 callsubr
          240 14 callsubr
          224 94 vstem
          198 408 -72 callgsubr
          22 122 -66 callsubr
        </CharString>
        <CharString name="nine">
          58 10 -21 247 76 339 60 hstem
          58 106 255 106 vstem
          246 236 rmoveto
          62 62 26 26 35 hvcurveto
          -15 -49 -19 -58 -40 -47 -45 -52 -73 -37 -65 -12 12 -44 rcurveline
          76 11 74 19 68 52 rrcurveto
          86 66 61 108 168 vvcurveto
          214 -100 84 -134 -152 -81 -108 -150 -169 104 -48 84 vhcurveto
          173 207 rmoveto
          -36 -2 -30 -3 -29 vhcurveto
          -16 -28 -51 -20 -48 hhcurveto
          -73 -50 47 115 69 18 61 21 29 hvcurveto
          14 18 38 4 25 hhcurveto
          105 30 -70 -138 hvcurveto
          endchar
        </CharString>
        <CharString name="ntilde">
          68 -5 callsubr
          77 -9 callsubr
          108 2 callgsubr
          hintmask 11010110
          370 -43 callgsubr
          -172 -161 -72 callgsubr
          endchar
        </CharString>
        <CharString name="numbersign">
          36 15 -21 222 72 122 72 224 -20 hstem
          516 216 rmoveto
          15 72 rlineto
          -123 hlineto
          13 83 3 13 2 13 2 13 rlinecurve
          117 hlineto
          11 72 rlineto
          -116 -21 callsubr
          -146 -21 callsubr
          -130 hlineto
          -17 -72 rlineto
          136 23 callgsubr
          -126 hlineto
          -17 -72 rlineto
          130 -17 callsubr
          146 -17 callsubr
          -180 155 rmoveto
          3 13 2 13 2 13 rrcurveto
          147 23 callgsubr
          -147 hlineto
          endchar
        </CharString>
        <CharString name="o">
          -18 callsubr
          -23 callsubr
          44 230 -104 callsubr
        </CharString>
        <CharString name="oacute">
          -18 callsubr
          240 -20 -23 callsubr
          239 -90 callsubr
          -172 -326 -104 callsubr
        </CharString>
        <CharString name="ocircumflex">
          -18 callsubr
          237 -20 -23 callsubr
          254 -78 callgsubr
          -280 -499 -104 callsubr
        </CharString>
        <CharString name="odieresis">
          -18 callsubr
          93 106 -23 callsubr
          410 691 -63 callgsubr
          -210 -66 callgsubr
          -172 -448 -104 callsubr
        </CharString>
        <CharString name="oe">
          333 -12 56 -56 79 -57 -21 246 56 144 57 hstemhm
          44 106 262 114 205 98 hintmask 01011111
          805 116 -84 callgsubr
          -71 -60 -37 -53 -41 vhcurveto
          56 -37 -62 34 -90 hhcurveto
          -31 callgsubr
          -144 85 -98 144 75 66 36 56 44 hvcurveto
          hintmask 00111111
          -58 37 63 -33 85 hhcurveto
          63 109 74 15 15 hvcurveto
          -418 150 -38 callgsubr
          hintmask 10011111
          -97 callsubr
          114 59 -70 callsubr
        </CharString>
        <CharString name="ograve">
          -18 callsubr
          240 -20 -23 callsubr
          357 -81 callgsubr
          -290 -300 -104 callsubr
        </CharString>
        <CharString name="one">
          -163 8 callsubr
          -20 hstem
          155 96 vstem
          183 700 rmoveto
          -45 -33 -56 -22 -62 -11 8 -45 rcurveline
          37 2 46 7 41 9 rrcurveto
          2 -17 1 -51 -30 vvcurveto
          -299 vlineto
          -87 -6 -81 -16 callgsubr
          126 -26 callsubr
          -6 77 91 vvcurveto
          188 -1 133 1 56 vhcurveto
          4 113 rlineto
          endchar
        </CharString>
        <CharString name="onehalf">
          270 0 54 -53 -21 409 44 292 -20 hstemhm
          112 79 482 82 hintmask 10111100
          773 81 -53 callgsubr
          -184 719 -25 callsubr
          rrcurveto
          hintmask 01111100
          6 -7 -27 callgsubr
          -518 -25 -79 callgsubr
          endchar
        </CharString>
        <CharString name="onequarter">
          237 19 callsubr
          566 -20 hstemhm
          112 79 402 77 hintmask 01111100
          671 -42 callgsubr
          hintmask 10011100
          -3 95 3 vlineto
          hintmask 01111100
          -5 20 -4 37 41 vvcurveto
          -104 618 -29 callgsubr
          -520 -25 -79 callgsubr
          399 -542 -15 callgsubr
        </CharString>
        <CharString name="onesuperior">
          -275 293 -21 428 -20 hstem
          112 79 vstem
          129 700 -79 callgsubr
          endchar
        </CharString>
        <CharString name="ordfeminine">
          -182 399 44 -24 -21 139 38 98 36 hstemhm
          29 78 107 74 hintmask 10111100
          213 475 rmoveto
          -16 -11 -30 -16 -22 hhcurveto
          -25 -18 15 33 11 3 14 5 10 hvcurveto
          8 10 23 3 16 hhcurveto
          13 23 -4 -5 13 hvcurveto
          10 -90 rmoveto
          hintmask 01111100
          4 -16 4 -11 6 -13 83 15 rcurveline
          -2 7 rlineto
          -18 13 -12 35 37 vvcurveto
          102 vlineto
          67 -49 35 -76 -38 -46 -9 -13 -42 vhcurveto
          2 -21 14 -32 13 -17 rrcurveto
          23 25 41 33 20 hhcurveto
          44 18 -30 -38 hvcurveto
          -32 vlineto
          -57 2 rlineto
          -75 -53 -20 -71 hvcurveto
          hintmask 10111100
          -59 44 -26 61 36 34 22 17 19 vhcurveto
          endchar
        </CharString>
        <CharString name="ordmasculine">
          -144 398 40 231 41 hstem
          40 78 157 78 vstem
          40 548 rmoveto
          -89 56 -61 96 92 69 76 86 90 -49 60 -102 -93 -69 -76 -86 vhcurveto
          235 -1 rmoveto
          -30 -7 -46 -17 -21 vhcurveto
          -9 -12 -21 -3 -11 hhcurveto
          -69 -20 56 68 32 9 44 16 19 hvcurveto
          9 12 19 3 17 hhcurveto
          67 17 -52 -70 hvcurveto
          endchar
        </CharString>
        <CharString name="oslash">
          11 -60 -21 69 56 391 57 78 -20 hstem
          31 106 262 106 vstem
          31 230 rmoveto
          -89 32 -71 58 -41 vhcurveto
          -25 -41 -23 -37 -19 -26 -1 -6 rcurveline
          73 14 11 27 11 25 11 22 rlinecurve
          -12 29 34 -7 38 hhcurveto
          139 106 123 139 98 -35 77 -72 39 hvcurveto
          23 39 21 35 17 26 1 6 rcurveline
          -62 -6 -12 -31 -13 -28 -13 -25 rlinecurve
          7 -25 -28 5 -31 hhcurveto
          -31 callgsubr
          hvcurveto
          368 -2 -38 callgsubr
          -16 -22 -33 -5 -20 hhcurveto
          -41 -29 11 20 -23 hvcurveto
          39 76 66 129 61 113 rrcurveto
          31 -37 10 -59 -69 vvcurveto
          -74 184 rmoveto
          -26 -52 -67 -132 -66 -120 rrcurveto
          -21 38 -8 51 56 vvcurveto
          53 15 75 26 32 vhcurveto
          16 21 31 6 28 hhcurveto
          28 24 -6 -10 18 hvcurveto
          endchar
        </CharString>
        <CharString name="otilde">
          -18 callsubr
          77 -9 callsubr
          44 106 262 106 hintmask 11010110
          357 -43 callgsubr
          -313 -339 -104 callsubr
        </CharString>
        <CharString name="p">
          51 -225 -21 234 65 365 74 1 -20 hstemhm
          101 94 241 107 hintmask 11101100
          328 53 rmoveto
          -47 -50 18 24 -36 hvcurveto
          270 vlineto
          32 46 44 21 22 callsubr
          -90 17 callsubr
          -227 -153 rmoveto
          -93 0 -13 -3 -40 vhcurveto
          138 11 callsubr
          68 vlineto
          -12 35 44 -10 43 hhcurveto
          114 112 122 -20 callsubr
          27 0 15 2 23 vhcurveto
          hintmask 11011100
          -6 10 -137 -32 17 callgsubr
          31 -19 20 -58 -58 vvcurveto
          endchar
        </CharString>
        <CharString name="paragraph">
          123 -243 -21 912 47 3 -20 hstemhm
          251 73 92 73 hintmask 11011000
          416 -109 rmoveto
          -7 callsubr
          761 vlineto
          48 -1 43 -4 35 -9 rrcurveto
          7 hlineto
          hintmask 10111000
          25 64 -394 -5 rlineto
          -146 -102 -94 -148 -120 89 -116 157 -2 hvcurveto
          -252 vlineto
          -7 callsubr
          hintmask 11011000
          224 0 237 3 230 vhcurveto
          89 hlineto
          endchar
        </CharString>
        <CharString name="parenleft">
          19 callgsubr
          73 92 vstem
          351 757 rmoveto
          -81 -30 -79 -62 -51 -89 rrcurveto
          -42 -73 -25 -98 -114 vvcurveto
          -266 136 -146 142 -52 vhcurveto
          4 3 7 14 3 10 3 11 rlinecurve
          -142 63 -61 112 243 vvcurveto
          197 40 167 163 72 vhcurveto
          -2 11 -7 14 -4 10 rrcurveto
          endchar
        </CharString>
        <CharString name="parenright">
          19 callgsubr
          235 92 vstem
          45 754 rmoveto
          -4 -10 -7 -14 -2 -11 rrcurveto
          163 -72 40 -167 -197 vvcurveto
          -243 -61 -112 -142 -63 vhcurveto
          3 -11 3 -10 7 -14 4 -3 rcurveline
          142 52 136 146 266 vvcurveto
          114 -25 98 -42 73 vhcurveto
          -51 89 -79 62 -81 30 rrcurveto
          endchar
        </CharString>
        <CharString name="percent">
          241 -12 58 -44 -21 331 55 -37 58 266 58 8 -20 hstemhm
          26 78 139 78 123 78 139 78 hintmask 0110011111000000
          552 716 rmoveto
          0 -110 -205 -18 -32 vhcurveto
          -49 -88 -183 -315 -62 -89 -1 -6 rcurveline
          85 8 rlineto
          0 109 205 18 32 vhcurveto
          49 88 183 311 62 89 1 6 rcurveline
          -610 -201 6 callsubr
          hintmask 1010101111000000
          -2 callsubr
          -43 -7 -57 12 callsubr
          83 81 -8 callsubr
          201 -308 6 callsubr
          hintmask 1001101111000000
          -2 callsubr
          -42 -7 -55 12 callsubr
          81 80 -8 callsubr
          endchar
        </CharString>
        <CharString name="period">
          -226 11 -21 hstem
          214 114 rmoveto
          -36 1 -40 -7 -37 -13 -10 -9 rcurveline
          -1 -26 7 -45 11 -20 11 -5 rcurveline
          41 3 32 5 37 11 10 8 rcurveline
          5 30 -7 49 -12 12 rrcurveto
          endchar
        </CharString>
        <CharString name="periodcentered">
          -243 244 -21 hstem
          195 350 rmoveto
          -37 1 -41 -7 -38 -13 -10 -9 rcurveline
          -1 -27 7 -46 11 -21 12 -5 rcurveline
          42 3 33 5 38 11 10 9 rcurveline
          5 30 -7 51 -13 12 rrcurveto
          endchar
        </CharString>
        <CharString name="plus">
          63 85 -21 228 9 callsubr
          578 4 callsubr
          -228 68 228 10 callsubr
          endchar
        </CharString>
        <CharString name="plusminus">
          63 11 66 305 9 callsubr
          668 4 callsubr
          -220 68 220 10 callsubr
          228 -590 -11 callgsubr
        </CharString>
        <CharString name="q">
          10 -225 -21 235 74 368 61 hstem
          44 106 242 101 vstem
          398 -61 rmoveto
          -68 -8 -64 -33 -40 vhcurveto
          -5 vlineto
          139 -8 rlineto
          -3 40 0 13 93 vvcurveto
          442 vlineto
          81 3 42 2 22 vhcurveto
          -6 2 -14 1 -8 -1 -57 -35 rcurveline
          20 -35 -51 18 -52 24 callgsubr
          -131 59 -117 147 50 51 29 46 47 hvcurveto
          -211 349 rmoveto
          13 17 29 5 23 hhcurveto
          46 57 20 callgsubr
          -51 -1 callgsubr
        </CharString>
        <CharString name="question">
          -107 10 -21 645 78 hstem
          297 96 vstem
          297 534 rmoveto
          -92 -79 -89 -76 -53 vhcurveto
          -12 -9 2 -26 -6 -37 -6 -28 rlinecurve
          -7 vlineto
          32 -5 26 -1 32 6 rrcurveto
          7 vlineto
          -10 33 -2 25 1 19 rrcurveto
          15 7 179 89 175 vvcurveto
          113 -74 51 -113 -37 -67 -6 -21 -57 vhcurveto
          -2 -37 6 -36 20 -35 rrcurveto
          42 51 47 15 36 hhcurveto
          65 29 -39 -61 hvcurveto
          -94 -444 rmoveto
          -28 -2 -23 -4 -24 -8 -8 -8 rcurveline
          -4 -19 4 -36 10 -20 10 -4 rcurveline
          29 2 20 3 27 8 8 8 rcurveline
          4 24 -6 41 -10 10 rrcurveto
          endchar
        </CharString>
        <CharString name="questiondown">
          -107 -232 78 645 -20 hstem
          37 96 vstem
          133 -50 rmoveto
          92 79 85 76 53 vhcurveto
          12 9 -2 26 6 37 6 28 rlinecurve
          7 vlineto
          -32 5 -26 1 -32 -6 rrcurveto
          -7 vlineto
          10 -33 2 -25 -1 -19 rrcurveto
          -15 -7 -179 -85 -175 vvcurveto
          -113 74 -55 113 37 67 6 21 57 vhcurveto
          2 37 -6 36 -20 35 rrcurveto
          -42 -51 -47 -15 -36 hhcurveto
          -65 -29 43 61 hvcurveto
          94 440 rmoveto
          28 2 23 4 24 8 8 8 rcurveline
          4 19 -4 36 -10 20 -10 4 rcurveline
          -29 -2 -20 -3 -27 -8 -8 -8 rcurveline
          -4 -24 6 -41 10 -10 rrcurveto
          endchar
        </CharString>
        <CharString name="quotedbl">
          -66 448 -21 hstem
          177 699 -54 callsubr
          173 5 -54 callsubr
          endchar
        </CharString>
        <CharString name="quotedblbase">
          -40 -168 -21 hstem
          127 100 93 -55 callsubr
          193 hmoveto
          -80 callgsubr
          endchar
        </CharString>
        <CharString name="quotedblleft">
          25 callgsubr
          266 482 -45 callgsubr
          -194 -1 -45 callgsubr
          endchar
        </CharString>
        <CharString name="quotedblright">
          25 callgsubr
          196 658 -45 callsubr
          194 1 -45 callsubr
          endchar
        </CharString>
        <CharString name="quoteleft">
          20 callsubr
          89 495 -24 callgsubr
          8 -19 callgsubr
          -23 24 -9 24 -11 60 29 53 26 47 -38 11 rcurveline
          -48 -64 -58 -86 30 -80 rrcurveto
          endchar
        </CharString>
        <CharString name="quoteright">
          20 callsubr
          189 658 -24 callsubr
          -8 -19 callsubr
          23 -24 9 -24 11 -60 -29 -53 -26 -47 38 -11 rcurveline
          48 64 58 86 -30 80 rrcurveto
          endchar
        </CharString>
        <CharString name="quotesinglbase">
          -233 -168 -21 hstem
          127 -55 callsubr
          endchar
        </CharString>
        <CharString name="quotesingle">
          -256 448 -21 hstem
          172 699 -54 callsubr
          endchar
        </CharString>
        <CharString name="r">
          -160 21 -21 395 97 14 callgsubr
          94 hintmask 10110000
          173 483 rmoveto
          -6 10 -118 -91 callgsubr
          214 vlineto
          hintmask 11010000
          -63 callsubr
          endchar
        </CharString>
        <CharString name="rcaron">
          -160 21 -21 395 97 210 14 callsubr
          vstem
          173 483 rmoveto
          -6 10 -118 -31 1 -12 rlineto
          -59 callsubr
          69 47 -58 callsubr
        </CharString>
        <CharString name="rcommaaccent">
          -160 -215 -21 257 -21 395 97 14 callgsubr
          96 -72 72 hintmask 11010100
          204 -93 callsubr
          -31 566 rmoveto
          -6 10 -118 -31 17 callgsubr
          hintmask 11101000
          -59 callsubr
          endchar
        </CharString>
        <CharString name="registered">
          221 -1 57 120 195 153 27 103 57 hstem
          31 63 148 83 118 91 133 -65 callsubr
          -133 110 rmoveto
          76 -65 17 -95 -3 vhcurveto
          -1 -18 -50 0 -32 -6 -25 1 -10 hhcurveto
          -3 vlineto
          8 -22 1 -36 -25 vvcurveto
          -207 vlineto
          -21 -4 -39 -7 -18 vhcurveto
          -4 101 4 vlineto
          -6 20 -1 41 22 vvcurveto
          84 vlineto
          -1 4 13 -1 3 hhcurveto
          81 -121 23 -34 6 -7 5 -7 rlinecurve
          114 5 hlineto
          -18 6 -23 17 -52 65 -62 78 rcurveline
          63 8 52 43 63 vvcurveto
          -167 63 rmoveto
          55 21 -17 -54 -52 -19 -30 -62 -9 -15 0 1 -13 hvcurveto
          135 0 3 1 12 vhcurveto
          2 11 20 0 10 hhcurveto
          endchar
        </CharString>
        <CharString name="ring">
          540 44 104 44 hstem
          152 43 107 42 vstem
          344 641 rmoveto
          49 -37 41 -54 1 vhcurveto
          -56 1 -45 -44 -58 vvcurveto
          -49 39 -43 54 1 vhcurveto
          56 1 43 42 58 vvcurveto
          -92 -57 rmoveto
          -34 -23 18 41 10 5 18 8 8 hvcurveto
          6 9 16 3 12 hhcurveto
          38 19 -16 -39 -12 -5 -20 -8 -8 hvcurveto
          -6 -9 -16 -3 -12 hhcurveto
          endchar
        </CharString>
        <CharString name="ring.cap">
          696 47 109 43 hstem
          149 44 110 45 vstem
          348 801 rmoveto
          5 callgsubr
          -50 50 -46 46 2 vhcurveto
          58 3 45 42 60 vvcurveto
          -96 -58 -30 callsubr
        </CharString>
        <CharString name="s">
          -79 -11 56 396 51 hstem
          58 85 181 91 vstem
          143 374 rmoveto
          20 8 25 10 10 vhcurveto
          8 15 21 4 20 hhcurveto
          54 54 -31 -40 40 hvcurveto
          19 32 10 26 6 30 rrcurveto
          19 -43 -64 15 -53 hhcurveto
          -95 -87 -47 -98 hvcurveto
          -172 266 59 -116 vvcurveto
          -22 -10 -26 -14 -12 vhcurveto
          -9 -17 -21 -4 -19 hhcurveto
          -67 -65 53 29 -32 hvcurveto
          -17 -25 -11 -28 -2 -38 rrcurveto
          -33 50 53 -14 61 hhcurveto
          114 88 48 106 hvcurveto
          185 -272 -68 114 vvcurveto
          endchar
        </CharString>
        <CharString name="section">
          29 -179 65 772 59 hstem
          47 70 51 54 107 56 51 77 vstem
          329 -109 rmoveto
          -3 -12 -17 -2 -15 hhcurveto
          -61 -63 35 64 -56 hvcurveto
          -19 -25 -11 -29 -2 -46 rrcurveto
          -41 54 79 -23 59 hhcurveto
          128 120 110 179 278 -292 -11 1 270 hvcurveto
          7 18 25 4 19 hhcurveto
          50 52 -28 -43 39 hvcurveto
          16 24 15 43 1 30 rrcurveto
          19 -43 -68 14 -50 hhcurveto
          -118 -131 -79 -172 -255 286 11 -4 -331 hvcurveto
          56 28 rmoveto
          11 341 -279 0 222 vvcurveto
          58 19 52 32 28 vhcurveto
          -1 -282 269 13 -257 vvcurveto
          -54 -12 -75 -39 -46 vhcurveto
          endchar
        </CharString>
        <CharString name="semicolon">
          -222 -159 -21 hstem
          113 104 vstem
          217 -20 callgsubr
          -6 -10 rcurveline
          11 -24 9 -19 -25 vvcurveto
          -88 -21 -25 -40 -64 vhcurveto
          52 -21 rlineto
          55 63 58 66 82 vvcurveto
          -45 426 -61 callsubr
          endchar
        </CharString>
        <CharString name="seven">
          -94 18 -21 633 71 2 -20 hstemhm
          hintmask 11000000
          217 -3 rmoveto
          17 110 42 128 40 109 43 119 67 188 24 46 -1 4 rcurveline
          -125 -50 -1 -53 hhcurveto
          hintmask 10100000
          -61 -63 1 2 -76 hvcurveto
          25 -132 rlineto
          11 hlineto
          hintmask 11000000
          38 38 66 21 98 hhcurveto
          32 43 -2 -2 21 hvcurveto
          -38 -102 -38 -94 -42 -96 -46 -105 -52 -107 -65 -118 1 -7 rcurveline
          endchar
        </CharString>
        <CharString name="six">
          57 -11 58 328 74 263 -20 hstem
          70 106 255 106 vstem
          348 449 rmoveto
          -69 -59 -33 -36 -36 hvcurveto
          13 65 26 63 40 47 54 63 75 32 55 17 -10 45 rcurveline
          -65 -9 -92 -39 -69 -56 rrcurveto
          -77 -63 -64 -100 -166 vvcurveto
          -207 99 -83 135 157 76 111 139 163 -105 47 -84 vhcurveto
          -172 -197 rmoveto
          25 1 23 1 21 vhcurveto
          24 31 56 30 52 hhcurveto
          65 49 -47 -109 -67 -18 -60 -21 -28 hvcurveto
          -13 -18 -38 -4 -25 hhcurveto
          -106 -29 72 133 hvcurveto
          endchar
        </CharString>
        <CharString name="slash">
          -208 -97 -21 852 -20 hstem
          273 716 rmoveto
          0 -70 -205 -12 -32 vhcurveto
          -32 -88 -160 -414 -45 -89 rrcurveto
          -6 vlineto
          98 27 17 51 13 43 13 38 rlinecurve
          43 120 163 448 60 119 rrcurveto
          6 vlineto
          endchar
        </CharString>
        <CharString name="space">
          -312 endchar
        </CharString>
        <CharString name="sterling">
          -45 0 60 290 54 308 -20 hstemhm
          88 106 -3 88 hintmask 11101000
          444 hmoveto
          27 121 rlineto
          -10 hlineto
          -36 -53 -106 -25 -129 hhcurveto
          15 13 91 79 82 vvcurveto
          31 -14 42 -17 41 vhcurveto
          26 -1 28 -2 29 -4 rrcurveto
          7 hlineto
          25 63 rlineto
          -1 -52 -45 -3 -39 hhcurveto
          hintmask 11110000
          -18 50 -15 45 39 vvcurveto
          45 22 52 38 22 vhcurveto
          3 20 12 0 10 hhcurveto
          32 46 -12 -33 45 hvcurveto
          18 20 11 21 15 23 rrcurveto
          28 -43 -73 9 -41 hhcurveto
          -135 -83 -91 -90 -45 19 -45 22 -42 hvcurveto
          -26 -28 3 6 -27 hvcurveto
          -7 hlineto
          -25 -64 rlineto
          4 46 54 2 34 hhcurveto
          2 hlineto
          hintmask 11101000
          19 -48 20 -52 -39 vvcurveto
          -78 -47 -62 -96 -21 vhcurveto
          -34 -50 rlineto
          endchar
        </CharString>
        <CharString name="t">
          -168 -11 70 361 60 115 14 callsubr
          vstem
          349 492 rmoveto
          -46 -5 -43 -5 -58 -2 rrcurveto
          115 vlineto
          -102 -26 3 -27 2 -31 1 -32 rlinecurve
          -19 1 -22 1 -23 2 -24 -65 rcurveline
          90 5 rlineto
          -53 vlineto
          -284 vlineto
          -51 7 -46 72 46 81 45 22 32 vhcurveto
          -21 35 rlineto
          -18 -36 -37 -14 -18 hhcurveto
          -21 -11 18 35 hvcurveto
          312 vlineto
          31 -1 40 -2 48 -7 rrcurveto
          endchar
        </CharString>
        <CharString name="thorn">
          51 -227 -21 237 65 363 74 250 -20 hstem
          97 93 246 107 vstem
          98 -102 rmoveto
          -93 0 -13 -3 -40 vhcurveto
          143 11 callsubr
          69 vlineto
          -10 35 35 -10 37 -12 callsubr
          231 -13 callsubr
          232 -527 rmoveto
          -47 -49 18 23 -36 hvcurveto
          268 vlineto
          32 46 43 22 22 callsubr
          -88 17 callsubr
          endchar
        </CharString>
        <CharString name="three">
          -33 -11 61 296 58 251 57 hstemhm
          314 96 -52 52 -52 101 hintmask 11100100
          215 -11 rmoveto
          163 81 101 125 148 -112 22 -48 6 hvcurveto
          hintmask 11110000
          45 13 66 60 102 vvcurveto
          114 -83 32 -89 -52 -79 -11 -19 -61 vhcurveto
          4 -37 9 -31 19 -27 rrcurveto
          36 42 59 32 49 hhcurveto
          61 25 -48 -57 -82 -49 -64 -73 hvcurveto
          -85 hlineto
          17 -62 rlineto
          4 hlineto
          3 20 47 1 26 hhcurveto
          hintmask 11101000
          95 42 -36 -100 -65 -17 -48 -29 -28 hvcurveto
          -20 -31 -45 1 -14 hhcurveto
          -81 -79 61 13 -17 hvcurveto
          -16 -18 -11 -34 1 -32 rrcurveto
          -26 46 69 -25 81 hhcurveto
          endchar
        </CharString>
        <CharString name="threequarters">
          338 19 callsubr
          115 49 166 39 142 42 13 -20 24 callsubr
          382 77 hintmask 0111110100100000
          772 -42 callgsubr
          hintmask 1001110100100000
          -3 95 3 vlineto
          hintmask 0111110001100000
          -5 20 -4 37 41 vvcurveto
          -630 173 12 callgsubr
          hintmask 1001110100100000
          -46 callsubr
          hintmask 0111101010100000
          -30 callgsubr
          492 445 -29 callgsubr
          -22 -567 -15 callgsubr
        </CharString>
        <CharString name="threesuperior">
          -199 274 49 166 39 142 42 24 callsubr
          hintmask 11100100
          142 274 12 callgsubr
          hintmask 11110000
          -46 callsubr
          hintmask 11101000
          -30 callgsubr
          endchar
        </CharString>
        <CharString name="tilde">
          569 -9 callsubr
          hintmask 01000000
          321 -44 callgsubr
          hintmask 00100000
          -75 callgsubr
          hintmask 10000000
          -25 callgsubr
          endchar
        </CharString>
        <CharString name="tilde.cap">
          781 -9 callsubr
          hintmask 01000000
          321 781 -41 callgsubr
          hintmask 00100000
          -51 callsubr
          hintmask 10000000
          -25 callgsubr
          endchar
        </CharString>
        <CharString name="two">
          -9 0 72 578 62 hstem
          345 106 vstem
          487 115 rmoveto
          -9 7 -37 -32 -102 -15 -89 -3 rlinecurve
          -1 -30 -46 0 -30 hhcurveto
          132 141 175 188 154 vvcurveto
          98 -70 60 -117 -74 -88 -24 -24 -57 vhcurveto
          3 -38 11 -34 25 -30 rrcurveto
          37 43 71 51 56 hhcurveto
          66 25 -39 -64 -166 -167 -183 -139 -149 hvcurveto
          19 -49 rlineto
          388 hlineto
          endchar
        </CharString>
        <CharString name="twosuperior">
          -176 279 54 335 44 hstem
          227 82 vstem
          327 360 -53 callgsubr
          endchar
        </CharString>
        <CharString name="u">
          0 callsubr
          492 -20 -18 callgsubr
          407 76 -105 callsubr
        </CharString>
        <CharString name="uacute">
          -4 callsubr
          255 -90 callsubr
          175 -480 -105 callsubr
        </CharString>
        <CharString name="ucircumflex">
          0 callsubr
          741 -20 -18 callgsubr
          256 -78 callgsubr
          81 -653 -105 callsubr
        </CharString>
        <CharString name="udieresis">
          0 callsubr
          592 106 -18 callgsubr
          454 686 -63 callgsubr
          -254 -66 callgsubr
          191 -597 -105 callsubr
        </CharString>
        <CharString name="ugrave">
          -4 callsubr
          367 -81 callgsubr
          63 -454 -105 callsubr
        </CharString>
        <CharString name="underscore">
          23 -138 56 hstem
          536 -138 rmoveto
          56 -512 -56 vlineto
          endchar
        </CharString>
        <CharString name="uni00AD">
          -49 callgsubr
        </CharString>
        <CharString name="v">
          -83 10 -21 499 -20 hstem
          276 -7 rmoveto
          14 51 113 327 22 64 19 23 11 10 rlinecurve
          12 -105 -12 vlineto
          -26 -1 -32 -20 -63 vhcurveto
          -84 -253 -67 207 rlineto
          -35 107 -13 37 8 callgsubr
          -136 -13 rlineto
          -12 vlineto
          12 -8 22 -31 19 -49 119 -329 rcurveline
          17 -57 rlineto
          endchar
        </CharString>
        <CharString name="w">
          226 10 -21 498 -20 hstem
          603 -9 rmoveto
          13 53 100 327 20 65 17 22 11 10 rlinecurve
          12 -98 -12 vlineto
          -35 -2 -23 -19 -63 vhcurveto
          -9 -34 -14 -45 -54 -167 -65 192 rcurveline
          -36 106 -15 42 8 callgsubr
          -129 -7 rlineto
          -12 vlineto
          8 -6 10 -22 11 -26 -4 -17 -5 -19 -8 -28 -10 -34 -12 -40 -59 -167 -67 194 rcurveline
          -37 106 -12 38 8 callgsubr
          -144 -12 rlineto
          -12 vlineto
          12 -8 20 -31 19 -49 131 -329 rcurveline
          17 -57 95 2 11 53 90 269 103 -267 17 -57 rlineto
          endchar
        </CharString>
        <CharString name="x">
          -49 21 -21 480 -20 hstem
          197 380 rmoveto
          -21 28 -24 34 -2 26 rrcurveto
          12 -151 -12 vlineto
          18 -9 49 -55 38 -52 82 -112 rcurveline
          -80 -125 -38 -58 -57 -40 -11 -5 rlinecurve
          -12 134 12 vlineto
          1 19 13 31 20 31 59 91 rcurveline
          60 -80 22 -30 12 -35 3 -27 rlinecurve
          -12 167 12 vlineto
          -18 9 -57 66 -52 69 -74 98 rcurveline
          63 96 42 65 47 44 26 9 rlinecurve
          12 -134 -12 vlineto
          -1 -19 -13 -31 -20 -31 -51 -78 rcurveline
          endchar
        </CharString>
        <CharString name="y">
          -87 -234 -21 742 -20 hstem
          206 -246 -93 callgsubr
        </CharString>
        <CharString name="yacute">
          -48 -234 -21 987 -20 hstem
          200 -90 callsubr
          38 -802 -93 callgsubr
        </CharString>
        <CharString name="ydieresis">
          -48 -234 -21 840 106 hstem
          394 691 -83 callsubr
          -197 -67 callsubr
          2 -924 -93 callgsubr
        </CharString>
        <CharString name="yen">
          7 21 -21 238 75 387 -20 hstem
          228 100 vstem
          544 313 rmoveto
          -4 -10 callgsubr
          -76 hlineto
          31 67 66 127 32 64 -37 callsubr
          -64 -70 -152 -55 112 34 -81 -36 callgsubr
          90 -176 rcurveline
          -185 hlineto
          -27 -68 rlineto
          4 54 45 3 40 hhcurveto
          79 -62 hlineto
          -29 callsubr
          35 193 vlineto
          endchar
        </CharString>
        <CharString name="z">
          -111 0 59 361 61 2 -20 hstemhm
          hintmask 10100000
          402 431 rmoveto
          -25 49 -312 3 -20 -84 11 -7 rlineto
          hintmask 11000000
          21 45 36 7 145 hhcurveto
          -267 -372 24 -48 rlineto
          335 hlineto
          28 83 -11 5 rlineto
          -13 -41 -77 -16 -137 hhcurveto
          endchar
        </CharString>
        <CharString name="zero">
          138 -12 71 584 71 hstem
          70 106 323 106 vstem
          70 364 rmoveto
          -227 95 -149 182 155 103 167 200 207 -78 152 -175 -165 -117 -140 -210 vhcurveto
          429 -30 rmoveto
          -86 -17 -116 -36 -40 vhcurveto
          -22 -19 -47 -11 -20 hhcurveto
          -146 -38 164 162 80 22 105 30 42 hvcurveto
          16 15 43 15 42 hhcurveto
          136 35 -140 -169 hvcurveto
          endchar
        </CharString>
      <CharString index="0">
        -89 callsubr
        -116 -12 -107 callsubr
        return
      </CharString>
      <CharString index="1">
        rmoveto
        -16 -40 callsubr
        -27 -28 callsubr
        -21 6 -39 -74 callsubr
        28 2 15 -52 callsubr
        25 -6 42 -10 11 rrcurveto
        return
      </CharString>
      <CharString index="2">
        rmoveto
        129 -105 44 -135 vhcurveto
        -29 -72 -2 -48 -12 -37 2 -13 hhcurveto
        -7 vlineto
        12 -41 3 -66 -48 vvcurveto
        -388 vlineto
        -37 -6 -71 -13 -48 callgsubr
        137 7 vlineto
        -12 39 -3 75 40 vvcurveto
        157 vlineto
        6 -1 10 0 13 -1 162 -227 rcurveline
        45 -63 6 -11 9 -15 rrcurveto
        164 10 hlineto
        -32 8 -36 27 -102 129 -115 145 rcurveline
        123 15 80 81 112 vvcurveto
        -253 122 rmoveto
        102 40 -31 -102 -96 -36 -57 -117 -16 -26 1 3 -27 hvcurveto
        250 0 6 3 22 vhcurveto
        3 22 37 1 18 hhcurveto
        return
      </CharString>
      <CharString index="3">
        7 -27 7 -21 9 -22 107 26 rcurveline
        -2 10 -30 21 -19 57 -1 59 rlinecurve
        168 vlineto
        107 -73 58 -115 -53 -65 -13 -19 -59 vhcurveto
        -83 callgsubr
        -57 vlineto
        -88 3 rlineto
        -114 -83 -31 -113 hvcurveto
        return
      </CharString>
      <CharString index="4">
        -96 callsubr
        hintmask 01111110
        -104 callgsubr
        hintmask 10111110
        -52 callgsubr
      </CharString>
      <CharString index="5">
        139 rmoveto
        -37 -4 -60 -12 -48 callgsubr
        135 -44 callsubr
        -10 61 62 vvcurveto
        236 -32 callgsubr
        -141 -39 callgsubr
        30 -21 20 -47 -56 vvcurveto
        return
      </CharString>
      <CharString index="6">
        2 callsubr
        222 111 vstem
        563 527 -105 callgsubr
        return
      </CharString>
      <CharString index="7">
        480 rmoveto
        37 6 141 9 35 -74 callgsubr
        -270 vlineto
        -87 -6 -91 -76 callsubr
        return
      </CharString>
      <CharString index="8">
        -38 callgsubr
        -97 callsubr
        endchar
      </CharString>
      <CharString index="9">
        -100 callsubr
        endchar
      </CharString>
      <CharString index="10">
        rmoveto
        6 -34 5 -18 13 -36 117 28 rcurveline
        -1 12 rlineto
        -27 19 -23 66 58 vvcurveto
        169 -59 callgsubr
        -138 -7 vlineto
        15 -34 14 -67 -62 vvcurveto
        -184 vlineto
        return
      </CharString>
      <CharString index="11">
        -106 callgsubr
        endchar
      </CharString>
      <CharString index="12">
        226 -100 callgsubr
        return
      </CharString>
      <CharString index="13">
        -20 hstem
        88 0 callgsubr
        609 -99 callsubr
        return
      </CharString>
      <CharString index="14">
        rmoveto
        8 vlineto
        13 52 40 114 28 82 124 365 26 81 13 12 rrcurveto
        12 -107 -12 vlineto
        6 -9 2 -12 -1 -15 -1 -33 -27 -101 -68 -206 rrcurveto
        -113 298 -14 54 8 callgsubr
        -134 -11 rlineto
        -12 vlineto
        32 -27 27 -79 15 -34 50 -119 34 -79 58 -140 -43 -114 -40 -66 -45 -54 1 -7 rcurveline
        endchar
      </CharString>
      <CharString index="15">
        rmoveto
        34 0 21 3 30 vhcurveto
        -6 10 -147 -39 callgsubr
        34 -22 22 -47 -58 vvcurveto
        -181 vlineto
        -207 -21 -68 -51 -55 vhcurveto
        -14 -15 -12 -10 -15 -9 36 -33 rcurveline
        22 19 rlineto
        75 65 74 50 224 vvcurveto
        return
      </CharString>
      <CharString index="16">
        -31 17 callgsubr
        -95 callsubr
        return
      </CharString>
      <CharString index="17">
        -46 -71 hvcurveto
        -153 vlineto
        -37 -5 -61 -12 -48 callgsubr
        141 -44 callsubr
        -15 67 62 vvcurveto
        144 vlineto
        116 return
      </CharString>
      <CharString index="18">
        -31 -44 -47 -24 -53 hhcurveto
        -71 -9 41 71 hvcurveto
        157 -59 callgsubr
        -139 -7 vlineto
        15 -34 15 return
      </CharString>
      <CharString index="19">
        -87 -7 -81 -16 callgsubr
        419 -60 callsubr
        -18 0 3 -23 hvcurveto
        return
      </CharString>
      <CharString index="20">
        -131 -91 callgsubr
        return
      </CharString>
      <CharString index="21">
        rmoveto
        -52 47 -56 68 -34 61 -33 -13 -18 -17 -17 -28 22 -22 29 -26 31 -25 34 -27 37 -25 34 -19 rrcurveto
        return
      </CharString>
      <CharString index="22">
        -65 callgsubr
        26 -6 43 -10 11 rrcurveto
        return
      </CharString>
      <CharString index="23">
        rmoveto
        -27 -46 -69 -22 -31 hhcurveto
        -77 -56 51 117 -41 callsubr
        -49 91 -130 return
      </CharString>
      <CharString index="24">
        6 -30 16 -42 19 -24 35 30 55 44 35 1 rrcurveto
        75 30 -54 -65 hvcurveto
        return
      </CharString>
      <CharString index="25">
        -75 callsubr
        -417 vlineto
        -37 -5 -86 -12 -35 vhcurveto
        -12 vlineto
        endchar
      </CharString>
      <CharString index="26">
        556 -86 callgsubr
        return
      </CharString>
      <CharString index="27">
        21 -7 35 -7 16 vhcurveto
        -1 3 -5 4 -4 4 -10 1 -20 -1 -18 -3 -22 -3 -22 -6 -11 -4 rrcurveto
        -2 -3 -1 -5 -3 vvcurveto
        19 -21 11 -33 -27 vvcurveto
        -59 -18 -45 -44 -65 vhcurveto
        52 -24 rlineto
        60 63 50 67 88 vvcurveto
        return
      </CharString>
      <CharString index="28">
        rmoveto
        -28 -20 -47 -15 -38 -8 7 -40 rcurveline
        28 1 36 6 22 5 rrcurveto
        2 -10 1 -29 -18 vvcurveto
        -179 vlineto
        -51 -3 -46 -7 -20 vhcurveto
        -4 98 4 vlineto
        -5 21 -4 45 56 vvcurveto
        233 vlineto
        26 2 26 1 17 vhcurveto
        return
      </CharString>
      <CharString index="29">
        718 -87 callsubr
        return
      </CharString>
      <CharString index="30">
        rmoveto
        27 21 rlineto
        98 76 85 59 247 vvcurveto
        334 vlineto
        37 4 131 11 -2 callgsubr
        -135 -7 vlineto
        12 -35 5 -13 callgsubr
        -291 vlineto
        -217 -14 -82 -83 -74 vhcurveto
        -23 -21 -10 -9 -13 -9 rrcurveto
        return
      </CharString>
      <CharString index="31">
        -20 hstem
        211 100 vstem
        311 290 rmoveto
        30 66 68 143 32 65 -37 callsubr
        -63 -70 -152 -55 112 34 -82 -36 callgsubr
        96 -189 rcurveline
        -110 vlineto
        -29 callsubr
        return
      </CharString>
      <CharString index="32">
        -82 callsubr
        16 24 28 22 35 hhcurveto
        return
      </CharString>
      <CharString index="33">
        -68 callsubr
        -13 callgsubr
        return
      </CharString>
      <CharString index="34">
        164 -12 64 835 -94 callgsubr
        return
      </CharString>
      <CharString index="35">
        rmoveto
        -3 25 -4 25 -5 25 -6 10 rcurveline
        -80 callsubr
        29 47 44 22 53 hhcurveto
        64 16 -90 callgsubr
        -55 62 -96 -62 -52 -40 -44 -57 vhcurveto
        return
      </CharString>
      <CharString index="36">
        hstem
        49 113 429 113 vstem
        -106 callsubr
        return
      </CharString>
      <CharString index="37">
        -6 -32 -11 -8 -7 rcurveline
        -1 -23 6 -39 10 -17 9 -4 rcurveline
        35 3 28 4 32 9 8 7 rcurveline
        4 26 -6 42 -11 10 rrcurveto
        return
      </CharString>
      <CharString index="38">
        94 vstem
        97 -102 callgsubr
        75 380 rmoveto
        -32 1 -33 -70 callgsubr
        return
      </CharString>
      <CharString index="39">
        -16 callgsubr
        133 -26 callsubr
        -6 return
      </CharString>
      <CharString index="40">
        rmoveto
        -19 12 -21 11 -17 15 -149 135 rcurveline
        -37 -35 20 -23 117 -126 -137 -150 38 -37 13 13 15 16 13 12 rlinecurve
        125 112 35 30 rlineto
        return
      </CharString>
      <CharString index="41">
        -5 -9 callgsubr
        -9 rcurveline
        -21 6 -40 9 -18 vhcurveto
        10 -3 rlineto
        13 hlineto
        28 -86 callsubr
        return
      </CharString>
      <CharString index="42">
        10 8 7 rcurveline
        3 return
      </CharString>
      <CharString index="43">
        6 -9 28 5 31 0 18 -8 rlinecurve
        8 -8 4 -13 -12 vvcurveto
        -30 -21 -15 -31 -19 -26 6 11 -22 vhcurveto
        -16 -32 rlineto
        -7 12 55 -22 35 hhcurveto
        56 53 29 58 hvcurveto
        return
      </CharString>
      <CharString index="44">
        -9 callgsubr
        -8 rcurveline
        -22 6 -40 9 -18 vhcurveto
        10 -3 rlineto
        13 hlineto
        28 -86 callsubr
        return
      </CharString>
      <CharString index="45">
        rmoveto
        34 63 78 22 17 hvcurveto
        -19 17 rlineto
        return
      </CharString>
      <CharString index="46">
        0 60 640 -20 hstem
        123 103 vstem
        108 -46 callgsubr
        281 vlineto
        37 6 133 9 36 -74 callgsubr
        -280 vlineto
        -86 -6 -82 9 callgsubr
        return
      </CharString>
      <CharString index="47">
        -144 85 -98 144 139 106 123 139 return
      </CharString>
      <CharString index="48">
        vlineto
        37 5 61 10 -2 callgsubr
        return
      </CharString>
      <CharString index="49">
        -39 callgsubr
        25 -24 21 -44 -56 vvcurveto
        return
      </CharString>
      <CharString index="50">
        501 rmoveto
        37 6 120 9 -2 callgsubr
        -104 -7 vlineto
        14 -78 1 return
      </CharString>
      <CharString index="51">
        -90 18 -45 -50 vvcurveto
        -17 168 10 vlineto
        -33 29 return
      </CharString>
      <CharString index="52">
        -6 callsubr
        16 3 29 -85 callgsubr
        return
      </CharString>
      <CharString index="53">
        -20 hstem
        130 103 vstem
        23 -247 -77 callgsubr
        return
      </CharString>
      <CharString index="54">
        rmoveto
        -5 4 -22 -19 -63 -9 -54 -3 rlinecurve
        -64 hlineto
        83 83 107 107 95 vvcurveto
        58 -44 36 -80 -49 -61 -19 -18 -36 vhcurveto
        1 -30 10 -27 21 -22 rrcurveto
        29 25 51 43 34 hhcurveto
        36 10 -23 -34 -99 -105 -104 -89 -89 hvcurveto
        12 -40 rlineto
        258 hlineto
        return
      </CharString>
      <CharString index="55">
        -93 67 -40 95 58 51 34 33 30 vhcurveto
        endchar
      </CharString>
      <CharString index="56">
        -53 callsubr
        -23 callgsubr
        return
      </CharString>
      <CharString index="57">
        -33 -11 65 -47 -21 229 51 173 53 return
      </CharString>
      <CharString index="58">
        -183 250 69 -57 -21 82 -20 hstemhm
        hintmask 10000000
        1 244 rmoveto
        0 100 6 34 vhcurveto
        hintmask 01100000
        52 61 0 -9 68 -11 callsubr
        hintmask 10000000
        30 78 rlineto
        -1 -10 callgsubr
        hintmask 01100000
        -52 -62 -5 13 -62 hvcurveto
        -7 hlineto
        endchar
      </CharString>
      <CharString index="59">
        -35 vhcurveto
        -7 return
      </CharString>
      <CharString index="60">
        27 callsubr
        -22 -1 callsubr
        -9 rcurveline
        -21 13 callsubr
        return
      </CharString>
      <CharString index="61">
        hmoveto
        417 7 callsubr
        -42 -85 -13 -97 hhcurveto
        -34 -24 0 3 -22 hvcurveto
        -4 51 -2 69 23 vvcurveto
        return
      </CharString>
      <CharString index="62">
        -24 callgsubr
        18 -19 callgsubr
        -28 24 -9 24 -18 81 41 77 6 19 -36 8 rcurveline
        -44 -69 -54 -95 30 -80 rrcurveto
        return
      </CharString>
      <CharString index="63">
        569 -62 callsubr
        return
      </CharString>
      <CharString index="64">
        -44 callgsubr
        hintmask 11001110
        -75 callgsubr
        hintmask 11100110
        -25 callgsubr
        return
      </CharString>
      <CharString index="65">
        101 rmoveto
        66 hlineto
        12 62 rlineto
        -1 -22 -30 -3 -27 hhcurveto
        124 0 92 2 54 vhcurveto
        -100 -7 -60 -91 -57 -95 -53 -91 rlinecurve
        25 -44 rlineto
        1 41 48 -1 76 hhcurveto
        -5 vlineto
        -1 -38 -2 -35 -4 -20 rrcurveto
        return
      </CharString>
      <CharString index="66">
        -62 callgsubr
        -18 -26 -32 -19 -34 hhcurveto
        return
      </CharString>
      <CharString index="67">
        rmoveto
        36 14 63 27 37 vhcurveto
        14 17 return
      </CharString>
      <CharString index="68">
        -24 rlineto
        -12 vlineto
        return
      </CharString>
      <CharString index="69">
        rmoveto
        -50 -11 -79 -28 -34 vhcurveto
        return
      </CharString>
      <CharString index="70">
        7 -133 -7 vlineto
        return
      </CharString>
      <CharString index="71">
        -89 193 rrcurveto
        -21 45 -13 30 37 vvcurveto
        17 -148 -10 vlineto
        23 -14 60 -104 47 -90 return
      </CharString>
      <CharString index="72">
        -17 callgsubr
        7 -13 callgsubr
        return
      </CharString>
      <CharString index="73">
        hvcurveto
        5 -18 5 -14 4 -10 rrcurveto
        return
      </CharString>
      <CharString index="74">
        rmoveto
        -30 1 -25 -6 -31 -10 -8 -8 rcurveline
        -1 -23 5 -34 9 -19 10 -4 rcurveline
        35 2 18 5 31 8 8 8 rcurveline
        1 28 -4 25 -9 22 rrcurveto
        endchar
      </CharString>
      <CharString index="75">
        vlineto
        -34 callsubr
        return
      </CharString>
      <CharString index="76">
        -139 -106 -123 -139 return
      </CharString>
      <CharString index="77">
        58 26 -19 -53 -37 -11 -33 -18 -14 hvcurveto
        -10 -19 -27 0 -8 hhcurveto
        -47 -47 39 9 -11 hvcurveto
        -11 -12 -8 -26 1 -25 rrcurveto
        -18 28 39 -16 51 hhcurveto
        return
      </CharString>
      <CharString index="78">
        -25 callsubr
        6 -7 rcurveline
        -27 callgsubr
        return
      </CharString>
      <CharString index="79">
        vhcurveto
        95 1 rlineto
        195 2 73 -79 -207 vvcurveto
        -94 -15 -106 -51 -58 vhcurveto
        -19 -32 -58 -12 -83 hhcurveto
        -35 -47 2 4 -40 hvcurveto
        endchar
      </CharString>
      <CharString index="80">
        84 6 65 107 62 95 276 439 91 91 rlinecurve
        -6 7 rlineto
        return
      </CharString>
      <CharString index="81">
        -43 -11 78 168 56 151 50 return
      </CharString>
      <CharString index="82">
        50 52 -48 48 hhcurveto
        return
      </CharString>
      <CharString index="83">
        rmoveto
        8 -18 20 -29 11 -12 3 -3 5 -2 5 -3 9 3 return
      </CharString>
      <CharString index="84">
        60 -24 94 -25 75 -6 rrcurveto
        return
      </CharString>
      <CharString index="85">
        216 -12 71 582 73 return
      </CharString>
      <CharString index="86">
        9 -18 vhcurveto
        return
      </CharString>
      <CharString index="87">
        31 rmoveto
        19 -7 35 -7 16 vhcurveto
        -1 3 -4 4 -4 4 -9 1 -19 -1 -17 -3 -20 -3 -20 -6 -10 -4 return
      </CharString>
      <CharString index="88">
        8 14 9 17 11 12 11 8 7 1 12 rcurveline
        -19 17 return
      </CharString>
      <CharString index="89">
        hstemhm
        85 2 callgsubr
        hintmask 01111000
        return
      </CharString>
      <CharString index="90">
        -7 vlineto
        9 -35 return
      </CharString>
      <CharString index="91">
        -9 -48 callgsubr
        return
      </CharString>
      <CharString index="92">
        rmoveto
        -1 -43 -43 -1 -43 hhcurveto
        40 72 44 75 45 70 rrcurveto
        1 -52 -1 -83 -80 vvcurveto
        endchar
      </CharString>
      <CharString index="93">
        hmoveto
        -26 callsubr
        -9 71 97 vvcurveto
        365 vlineto
        return
      </CharString>
      <CharString index="94">
        -91 -77 vvcurveto
        return
      </CharString>
      <CharString index="95">
        -92 callsubr
        189 vlineto
        return
      </CharString>
      <CharString index="96">
        rmoveto
        -515 1 -1 -67 rlineto
        515 hlineto
        endchar
      </CharString>
      <CharString index="97">
        -54 -45 -3 -40 hhcurveto
        return
      </CharString>
      <CharString index="98">
        rmoveto
        -17 hlineto
        -21 -1 callsubr
        return
      </CharString>
      <CharString index="99">
        2 23 23 28 callsubr
        return
      </CharString>
      <CharString index="100">
        31 138 -1 21 hhcurveto
        -126 74 rmoveto
        -4 30 0 94 136 vvcurveto
        return
      </CharString>
      <CharString index="101">
        -27 20 -20 27 27 21 20 27 27 -21 21 -27 -27 -20 -21 -27 vhcurveto
        return
      </CharString>
      <CharString index="102">
        -21 747 -20 hstem
        96 94 return
      </CharString>
      <CharString index="103">
        hlineto
        -21 -1 return
      </CharString>
      <CharString index="104">
        -25 39 rlineto
        -12 -16 -86 -38 -61 hhcurveto
        -86 -29 88 92 hvcurveto
        endchar
      </CharString>
      <CharString index="105">
        35 vhcurveto
        7 return
      </CharString>
      <CharString index="106">
        -15 -29 hhcurveto
        -92 -33 101 89 55 12 65 25 40 hvcurveto
        endchar
      </CharString>
      <CharString index="107">
        102 345 74 vstem
        return
      </CharString>
      <CharString index="108">
        21 -21 245 56 return
      </CharString>
      <CharString index="109">
        94 224 94 return
      </CharString>
      <CharString index="110">
        9 -35 6 return
      </CharString>
      <CharString index="111" raw="1">
        1876910b   
      </CharString>
      <CharString index="112">
        50 -38 43 -56 1 vhcurveto
        -58 2 -47 -47 -60 vvcurveto
        return
      </CharString>
      <CharString index="113">
        -1 -35 -4 -42 -5 -36 4 -7 rcurveline
        59 16 rlineto
        return
      </CharString>
      <CharString index="114">
        -106 -174 39 -20 -21 894 40 2 -20 hstemhm
        return
      </CharString>
      <CharString index="115">
        31 vvcurveto
        12 vlineto
        return
      </CharString>
      <CharString index="116">
        -9 -35 vhcurveto
        return
      </CharString>
      <CharString index="117">
        9 35 -68 callsubr
        return
      </CharString>
      <CharString index="118">
        7 hlineto
        23 61 rlineto
        -4 -10 callgsubr
        return
      </CharString>
      <CharString index="119">
        rmoveto
        103 67 62 77 90 -74 15 -30 3 hvcurveto
        return
      </CharString>
      <CharString index="120">
        -21 371 -20 hstem
        return
      </CharString>
      <CharString index="121">
        1 -20 hstemhm
        108 return
      </CharString>
      <CharString index="122">
        vlineto
        40 3 45 4 54 vhcurveto
        -81 -30 rlineto
        return
      </CharString>
      <CharString index="123">
        35 -6 131 37 vvcurveto
        return
      </CharString>
      <CharString index="124">
        1 -12 rlineto
        return
      </CharString>
      <CharString index="125">
        -20 hstemhm
        -32 callsubr
        return
      </CharString>
      <CharString index="126">
        -137 -152 -21 930 -20 hstem
        return
      </CharString>
      <CharString index="127">
        -14 -24 33 hvcurveto
        -282 vlineto
        -33 -37 return
      </CharString>
      <CharString index="128">
        -7 -132 16 rrcurveto
        -7 hlineto
        endchar
      </CharString>
      <CharString index="129">
        -32 75 hstemhm
        return
      </CharString>
      <CharString index="130">
        hlineto
        -5 -35 -8 -43 -7 -44 rrcurveto
        return
      </CharString>
      <CharString index="131">
        hhcurveto
        -136 -95 -115 -140 return
      </CharString>
      <CharString index="132">
        -60 435 -21 312 -20 hstem
        return
      </CharString>
      <CharString index="133">
        -286 -227 -21 return
      </CharString>
      <CharString index="134">
        49 339 rmoveto
        return
      </CharString>
      <CharString index="135">
        2 38 vhcurveto
        return
      </CharString>
</ttFont>
